G75*
G70*
%OFA0B0*%
%FSLAX24Y24*%
%IPPOS*%
%LPD*%
%AMOC8*
5,1,8,0,0,1.08239X$1,22.5*
%
%ADD10C,0.0520*%
%ADD11R,0.0600X0.0600*%
%ADD12C,0.0600*%
%ADD13C,0.0760*%
%ADD14C,0.0660*%
%ADD15C,0.0160*%
%ADD16C,0.0317*%
%ADD17C,0.0100*%
D10*
X006431Y004433D03*
X008431Y004433D03*
D11*
X005431Y009683D03*
D12*
X006431Y009683D03*
X007431Y009683D03*
X008431Y009683D03*
X009431Y009683D03*
X010431Y009683D03*
X011431Y009683D03*
X012431Y009683D03*
X013431Y009683D03*
X014431Y009683D03*
X015431Y009683D03*
X016431Y009683D03*
X017431Y009683D03*
X017431Y008058D03*
X017431Y007058D03*
X017431Y006058D03*
X017431Y005058D03*
X017431Y004058D03*
X017431Y003058D03*
D13*
X009681Y001683D03*
X008681Y001683D03*
X007681Y001683D03*
D14*
X013431Y005433D03*
X014431Y005433D03*
X014431Y006433D03*
X013431Y006433D03*
X013431Y007433D03*
X014431Y007433D03*
D15*
X000959Y000747D02*
X000835Y000837D01*
X000745Y000961D01*
X000697Y001107D01*
X000691Y001183D01*
X000691Y009651D01*
X000696Y009669D01*
X000691Y009702D01*
X000691Y009735D01*
X000687Y009745D01*
X000683Y009818D01*
X000716Y010010D01*
X000807Y010183D01*
X000947Y010319D01*
X001123Y010405D01*
X001206Y010423D01*
X017656Y010423D01*
X017740Y010405D01*
X017915Y010319D01*
X018056Y010183D01*
X018147Y010010D01*
X018180Y009818D01*
X018176Y009745D01*
X018171Y009735D01*
X018171Y009702D01*
X018167Y009669D01*
X018171Y009651D01*
X018171Y001235D01*
X018171Y001183D01*
X018165Y001107D01*
X018118Y000961D01*
X018028Y000837D01*
X017904Y000747D01*
X017758Y000699D01*
X017681Y000693D01*
X001233Y000693D01*
X001181Y000693D01*
X001105Y000699D01*
X000959Y000747D01*
X000954Y000750D02*
X017909Y000750D01*
X018080Y000909D02*
X000783Y000909D01*
X000710Y001068D02*
X018153Y001068D01*
X018171Y001226D02*
X010016Y001226D01*
X009999Y001209D02*
X010156Y001366D01*
X010241Y001572D01*
X010241Y001795D01*
X010156Y002001D01*
X009999Y002158D01*
X009793Y002243D01*
X009570Y002243D01*
X009364Y002158D01*
X009207Y002001D01*
X009181Y001940D01*
X009156Y002001D01*
X008999Y002158D01*
X008941Y002182D01*
X008941Y003826D01*
X009289Y004173D01*
X009650Y004173D01*
X009677Y004146D01*
X009802Y004095D01*
X009936Y004095D01*
X010061Y004146D01*
X010156Y004241D01*
X010208Y004366D01*
X010208Y004501D01*
X010156Y004625D01*
X010129Y004652D01*
X010129Y004794D01*
X010152Y004817D01*
X010191Y004913D01*
X010191Y005453D01*
X010912Y005453D01*
X010802Y005408D01*
X010707Y005313D01*
X010655Y005188D01*
X010655Y005053D01*
X010707Y004929D01*
X010802Y004834D01*
X010926Y004782D01*
X011007Y004782D01*
X011769Y004021D01*
X011774Y004016D01*
X013599Y004016D01*
X013593Y004001D01*
X013593Y003866D01*
X013644Y003741D01*
X013671Y003714D01*
X013671Y003635D01*
X013520Y003483D01*
X013520Y003501D01*
X013469Y003625D01*
X013373Y003721D01*
X013249Y003772D01*
X013114Y003772D01*
X012990Y003721D01*
X012962Y003693D01*
X012039Y003693D01*
X011954Y003779D01*
X011858Y003818D01*
X011755Y003818D01*
X010775Y003818D01*
X010748Y003846D01*
X010624Y003897D01*
X010489Y003897D01*
X010365Y003846D01*
X010269Y003750D01*
X010218Y003626D01*
X010218Y003491D01*
X010269Y003366D01*
X010365Y003271D01*
X010489Y003220D01*
X010624Y003220D01*
X010748Y003271D01*
X010775Y003298D01*
X011699Y003298D01*
X011711Y003286D01*
X011784Y003213D01*
X011880Y003173D01*
X012962Y003173D01*
X012990Y003146D01*
X013114Y003095D01*
X013131Y003095D01*
X012980Y002943D01*
X012400Y002943D01*
X012373Y002971D01*
X012249Y003022D01*
X012114Y003022D01*
X011990Y002971D01*
X011894Y002875D01*
X011843Y002751D01*
X011843Y002616D01*
X011894Y002491D01*
X011990Y002396D01*
X012114Y002345D01*
X012249Y002345D01*
X012373Y002396D01*
X012400Y002423D01*
X013036Y002423D01*
X013139Y002423D01*
X013235Y002463D01*
X014043Y003271D01*
X014082Y003179D01*
X014177Y003084D01*
X014301Y003032D01*
X014436Y003032D01*
X014561Y003084D01*
X014656Y003179D01*
X014708Y003303D01*
X014708Y003342D01*
X016460Y005095D01*
X016499Y005095D01*
X016623Y005146D01*
X016719Y005241D01*
X016770Y005366D01*
X016770Y005394D01*
X016969Y005196D01*
X016951Y005154D01*
X016951Y004963D01*
X017024Y004786D01*
X017159Y004651D01*
X017336Y004578D01*
X017527Y004578D01*
X017703Y004651D01*
X017838Y004786D01*
X017911Y004963D01*
X017911Y005154D01*
X017838Y005330D01*
X017703Y005465D01*
X017527Y005538D01*
X017336Y005538D01*
X017294Y005521D01*
X017166Y005649D01*
X017336Y005578D01*
X017527Y005578D01*
X017703Y005651D01*
X017838Y005786D01*
X017911Y005963D01*
X017911Y006154D01*
X017838Y006330D01*
X017703Y006465D01*
X017527Y006538D01*
X017336Y006538D01*
X017161Y006466D01*
X017161Y006651D01*
X017336Y006578D01*
X017527Y006578D01*
X017703Y006651D01*
X017838Y006786D01*
X017911Y006963D01*
X017911Y007154D01*
X017838Y007330D01*
X017703Y007465D01*
X017527Y007538D01*
X017336Y007538D01*
X017161Y007466D01*
X017161Y007651D01*
X017336Y007578D01*
X017527Y007578D01*
X017703Y007651D01*
X017838Y007786D01*
X017911Y007963D01*
X017911Y008154D01*
X017838Y008330D01*
X017703Y008465D01*
X017527Y008538D01*
X017362Y008538D01*
X017418Y008595D01*
X017499Y008595D01*
X017623Y008646D01*
X017719Y008741D01*
X017770Y008866D01*
X017770Y009001D01*
X017719Y009125D01*
X017623Y009221D01*
X017596Y009232D01*
X017703Y009276D01*
X017838Y009411D01*
X017911Y009588D01*
X017911Y009779D01*
X017838Y009955D01*
X017703Y010090D01*
X017527Y010163D01*
X017336Y010163D01*
X017159Y010090D01*
X017024Y009955D01*
X016951Y009779D01*
X016951Y009588D01*
X016969Y009546D01*
X016841Y009418D01*
X016911Y009588D01*
X016911Y009779D01*
X016838Y009955D01*
X016703Y010090D01*
X016527Y010163D01*
X016336Y010163D01*
X016159Y010090D01*
X016024Y009955D01*
X015951Y009779D01*
X015951Y009588D01*
X016024Y009411D01*
X016159Y009276D01*
X016201Y009259D01*
X016201Y006404D01*
X015661Y005864D01*
X015661Y009259D01*
X015703Y009276D01*
X015838Y009411D01*
X015911Y009588D01*
X015911Y009779D01*
X015838Y009955D01*
X015703Y010090D01*
X015527Y010163D01*
X015336Y010163D01*
X015159Y010090D01*
X015024Y009955D01*
X014951Y009779D01*
X014951Y009588D01*
X015024Y009411D01*
X015159Y009276D01*
X015201Y009259D01*
X015201Y009142D01*
X015123Y009221D01*
X014999Y009272D01*
X014864Y009272D01*
X014740Y009221D01*
X014712Y009193D01*
X010938Y009193D01*
X010893Y009196D01*
X010887Y009193D01*
X010880Y009193D01*
X010838Y009176D01*
X010796Y009161D01*
X010791Y009156D01*
X010784Y009154D01*
X010753Y009122D01*
X010294Y008710D01*
X010239Y008710D01*
X010115Y008658D01*
X010019Y008563D01*
X009968Y008438D01*
X009968Y008304D01*
X010019Y008179D01*
X010115Y008084D01*
X010239Y008032D01*
X010374Y008032D01*
X010498Y008084D01*
X010594Y008179D01*
X010645Y008304D01*
X010645Y008326D01*
X011031Y008673D01*
X012862Y008673D01*
X012843Y008626D01*
X012843Y008507D01*
X012742Y008507D01*
X012680Y008507D01*
X012623Y008564D01*
X012499Y008616D01*
X012364Y008616D01*
X012240Y008564D01*
X012197Y008522D01*
X012123Y008596D01*
X011999Y008647D01*
X011864Y008647D01*
X011740Y008596D01*
X011644Y008500D01*
X011593Y008376D01*
X011593Y008241D01*
X011644Y008116D01*
X011701Y008059D01*
X011701Y007088D01*
X011836Y006953D01*
X012086Y006703D01*
X012277Y006703D01*
X012991Y006703D01*
X012950Y006603D01*
X012843Y006647D01*
X012708Y006647D01*
X012583Y006596D01*
X012488Y006500D01*
X012436Y006376D01*
X012436Y006241D01*
X012488Y006116D01*
X012583Y006021D01*
X012708Y005970D01*
X012789Y005970D01*
X012920Y005838D01*
X013018Y005741D01*
X012999Y005722D01*
X012975Y005663D01*
X012777Y005663D01*
X012527Y005913D01*
X012336Y005913D01*
X010183Y005913D01*
X010024Y005913D01*
X009974Y005963D01*
X010407Y006396D01*
X010411Y006401D01*
X010411Y007309D01*
X010441Y007382D01*
X010441Y007485D01*
X010402Y007581D01*
X008954Y009029D01*
X008858Y009068D01*
X008755Y009068D01*
X006025Y009068D01*
X005998Y009096D01*
X005874Y009147D01*
X005739Y009147D01*
X005615Y009096D01*
X005519Y009000D01*
X005468Y008876D01*
X005468Y008741D01*
X005519Y008616D01*
X005615Y008521D01*
X005739Y008470D01*
X005874Y008470D01*
X005998Y008521D01*
X006025Y008548D01*
X008699Y008548D01*
X009584Y007663D01*
X009492Y007663D01*
X008868Y007663D01*
X008774Y007663D01*
X008730Y007619D01*
X008649Y007538D01*
X007868Y007538D01*
X007811Y007595D01*
X007686Y007647D01*
X007551Y007647D01*
X007427Y007595D01*
X007332Y007500D01*
X007280Y007376D01*
X007280Y007327D01*
X006829Y007779D01*
X006733Y007818D01*
X006650Y007818D01*
X006623Y007846D01*
X006499Y007897D01*
X006364Y007897D01*
X006240Y007846D01*
X006144Y007750D01*
X006093Y007626D01*
X006093Y007587D01*
X005836Y007331D01*
X005796Y007235D01*
X005796Y007132D01*
X005796Y005443D01*
X004983Y005443D01*
X004880Y005443D01*
X004784Y005404D01*
X004652Y005272D01*
X004614Y005272D01*
X004490Y005221D01*
X004394Y005125D01*
X004343Y005001D01*
X004343Y004866D01*
X004394Y004741D01*
X004490Y004646D01*
X004614Y004595D01*
X004749Y004595D01*
X004873Y004646D01*
X004969Y004741D01*
X005020Y004866D01*
X005020Y004904D01*
X005039Y004923D01*
X005837Y004923D01*
X005865Y004896D01*
X005989Y004845D01*
X006124Y004845D01*
X006248Y004896D01*
X006344Y004991D01*
X006395Y005116D01*
X006395Y005251D01*
X006344Y005375D01*
X006316Y005402D01*
X006316Y007076D01*
X006460Y007220D01*
X006499Y007220D01*
X006607Y007265D01*
X007149Y006724D01*
X007222Y006650D01*
X007317Y006611D01*
X007336Y006611D01*
X007421Y006611D01*
X009027Y006611D01*
X009046Y006611D01*
X009138Y006649D01*
X009141Y006650D01*
X009282Y006791D01*
X009302Y006771D01*
X009427Y006720D01*
X009561Y006720D01*
X009686Y006771D01*
X009701Y006787D01*
X009701Y006779D01*
X009632Y006710D01*
X009551Y006710D01*
X009427Y006658D01*
X009332Y006563D01*
X009280Y006438D01*
X009280Y006357D01*
X009177Y006314D01*
X009150Y006287D01*
X009077Y006287D01*
X009077Y006287D01*
X008973Y006287D01*
X008927Y006268D01*
X008878Y006248D01*
X008878Y006248D01*
X008848Y006218D01*
X008805Y006174D01*
X008560Y005929D01*
X006652Y004022D01*
X006614Y004022D01*
X006490Y003971D01*
X006462Y003943D01*
X005005Y003943D01*
X004733Y003943D01*
X004630Y003943D01*
X004534Y003904D01*
X004270Y003640D01*
X004270Y003751D01*
X004219Y003875D01*
X004123Y003971D01*
X004014Y004016D01*
X003969Y004125D01*
X003873Y004221D01*
X003749Y004272D01*
X003614Y004272D01*
X003490Y004221D01*
X003394Y004125D01*
X003343Y004001D01*
X003343Y003866D01*
X003394Y003741D01*
X003490Y003646D01*
X003599Y003601D01*
X003644Y003491D01*
X003740Y003396D01*
X003864Y003345D01*
X003975Y003345D01*
X003574Y002943D01*
X003525Y002943D01*
X003498Y002971D01*
X003374Y003022D01*
X003239Y003022D01*
X003115Y002971D01*
X003019Y002875D01*
X002968Y002751D01*
X002968Y002616D01*
X003019Y002491D01*
X003115Y002396D01*
X003239Y002345D01*
X003374Y002345D01*
X003498Y002396D01*
X003525Y002423D01*
X003630Y002423D01*
X003733Y002423D01*
X003829Y002463D01*
X004789Y003423D01*
X005005Y003423D01*
X006462Y003423D01*
X006490Y003396D01*
X006614Y003345D01*
X006749Y003345D01*
X006873Y003396D01*
X006969Y003491D01*
X007020Y003616D01*
X007020Y003654D01*
X008996Y005630D01*
X009133Y005767D01*
X009150Y005767D01*
X009177Y005740D01*
X009302Y005688D01*
X009405Y005688D01*
X009405Y005647D01*
X009457Y005523D01*
X009552Y005428D01*
X009671Y005378D01*
X009671Y005072D01*
X009649Y005049D01*
X009609Y004954D01*
X009609Y004850D01*
X009609Y004693D01*
X009233Y004693D01*
X009130Y004693D01*
X009034Y004654D01*
X008871Y004491D01*
X008871Y004521D01*
X008804Y004683D01*
X008681Y004806D01*
X008519Y004873D01*
X008344Y004873D01*
X008182Y004806D01*
X008058Y004683D01*
X007991Y004521D01*
X007991Y004346D01*
X008058Y004184D01*
X008182Y004060D01*
X008344Y003993D01*
X008425Y003993D01*
X008421Y003985D01*
X008421Y002182D01*
X008364Y002158D01*
X008207Y002001D01*
X008181Y001940D01*
X008156Y002001D01*
X007999Y002158D01*
X007793Y002243D01*
X007570Y002243D01*
X007364Y002158D01*
X007207Y002001D01*
X007183Y001943D01*
X006977Y001943D01*
X006891Y002029D01*
X006796Y002068D01*
X006692Y002068D01*
X003525Y002068D01*
X003498Y002096D01*
X003374Y002147D01*
X003239Y002147D01*
X003115Y002096D01*
X003019Y002000D01*
X002968Y001876D01*
X002968Y001741D01*
X003019Y001616D01*
X003115Y001521D01*
X003239Y001470D01*
X003374Y001470D01*
X003498Y001521D01*
X003525Y001548D01*
X006636Y001548D01*
X006649Y001536D01*
X006722Y001463D01*
X006817Y001423D01*
X007183Y001423D01*
X007207Y001366D01*
X007364Y001209D01*
X007570Y001123D01*
X007793Y001123D01*
X007999Y001209D01*
X008156Y001366D01*
X008181Y001427D01*
X008207Y001366D01*
X008364Y001209D01*
X008570Y001123D01*
X008793Y001123D01*
X008999Y001209D01*
X009156Y001366D01*
X009181Y001427D01*
X009207Y001366D01*
X009364Y001209D01*
X009570Y001123D01*
X009793Y001123D01*
X009999Y001209D01*
X010164Y001385D02*
X018171Y001385D01*
X018171Y001543D02*
X010229Y001543D01*
X010241Y001702D02*
X018171Y001702D01*
X018171Y001860D02*
X010214Y001860D01*
X010138Y002019D02*
X018171Y002019D01*
X018171Y002177D02*
X009952Y002177D01*
X009411Y002177D02*
X008952Y002177D01*
X009138Y002019D02*
X009225Y002019D01*
X008941Y002336D02*
X018171Y002336D01*
X018171Y002494D02*
X013266Y002494D01*
X013425Y002653D02*
X017173Y002653D01*
X017180Y002648D02*
X017247Y002614D01*
X017319Y002590D01*
X017394Y002578D01*
X017411Y002578D01*
X017411Y003038D01*
X016951Y003038D01*
X016951Y003021D01*
X016963Y002946D01*
X016987Y002874D01*
X017021Y002807D01*
X017065Y002746D01*
X017119Y002692D01*
X017180Y002648D01*
X017411Y002653D02*
X017451Y002653D01*
X017451Y002578D02*
X017469Y002578D01*
X017544Y002590D01*
X017616Y002614D01*
X017683Y002648D01*
X017744Y002692D01*
X017798Y002746D01*
X017842Y002807D01*
X017876Y002874D01*
X017900Y002946D01*
X017911Y003021D01*
X017911Y003038D01*
X017452Y003038D01*
X017452Y003078D01*
X017911Y003078D01*
X017911Y003096D01*
X017900Y003171D01*
X017876Y003243D01*
X017842Y003310D01*
X017798Y003371D01*
X017744Y003424D01*
X017683Y003469D01*
X017616Y003503D01*
X017544Y003527D01*
X017469Y003538D01*
X017451Y003538D01*
X017451Y003079D01*
X017411Y003079D01*
X017411Y003538D01*
X017394Y003538D01*
X017319Y003527D01*
X017247Y003503D01*
X017180Y003469D01*
X017119Y003424D01*
X017065Y003371D01*
X017021Y003310D01*
X016987Y003243D01*
X016963Y003171D01*
X016951Y003096D01*
X016951Y003078D01*
X017411Y003078D01*
X017411Y003038D01*
X017451Y003038D01*
X017451Y002578D01*
X017690Y002653D02*
X018171Y002653D01*
X018171Y002812D02*
X017844Y002812D01*
X017903Y002970D02*
X018171Y002970D01*
X018171Y003129D02*
X017906Y003129D01*
X017854Y003287D02*
X018171Y003287D01*
X018171Y003446D02*
X017715Y003446D01*
X017589Y003604D02*
X018171Y003604D01*
X018171Y003763D02*
X017815Y003763D01*
X017838Y003786D02*
X017703Y003651D01*
X017527Y003578D01*
X017336Y003578D01*
X017159Y003651D01*
X017024Y003786D01*
X016951Y003963D01*
X016951Y004154D01*
X017024Y004330D01*
X017159Y004465D01*
X017336Y004538D01*
X017527Y004538D01*
X017703Y004465D01*
X017838Y004330D01*
X017911Y004154D01*
X017911Y003963D01*
X017838Y003786D01*
X017894Y003921D02*
X018171Y003921D01*
X018171Y004080D02*
X017911Y004080D01*
X017876Y004238D02*
X018171Y004238D01*
X018171Y004397D02*
X017772Y004397D01*
X018171Y004556D02*
X015921Y004556D01*
X015763Y004397D02*
X017091Y004397D01*
X016986Y004238D02*
X015604Y004238D01*
X015446Y004080D02*
X016951Y004080D01*
X016969Y003921D02*
X015287Y003921D01*
X015129Y003763D02*
X017048Y003763D01*
X017273Y003604D02*
X014970Y003604D01*
X014811Y003446D02*
X017148Y003446D01*
X017009Y003287D02*
X014701Y003287D01*
X014606Y003129D02*
X016957Y003129D01*
X016959Y002970D02*
X013742Y002970D01*
X013583Y002812D02*
X017018Y002812D01*
X017411Y002812D02*
X017451Y002812D01*
X017451Y002970D02*
X017411Y002970D01*
X017411Y003129D02*
X017451Y003129D01*
X017451Y003287D02*
X017411Y003287D01*
X017411Y003446D02*
X017451Y003446D01*
X017766Y004714D02*
X018171Y004714D01*
X018171Y004873D02*
X017874Y004873D01*
X017911Y005031D02*
X018171Y005031D01*
X018171Y005190D02*
X017897Y005190D01*
X017820Y005348D02*
X018171Y005348D01*
X018171Y005507D02*
X017603Y005507D01*
X017717Y005665D02*
X018171Y005665D01*
X018171Y005824D02*
X017854Y005824D01*
X017911Y005982D02*
X018171Y005982D01*
X018171Y006141D02*
X017911Y006141D01*
X017851Y006299D02*
X018171Y006299D01*
X018171Y006458D02*
X017711Y006458D01*
X017619Y006617D02*
X018171Y006617D01*
X018171Y006775D02*
X017827Y006775D01*
X017899Y006934D02*
X018171Y006934D01*
X018171Y007092D02*
X017911Y007092D01*
X017871Y007251D02*
X018171Y007251D01*
X018171Y007409D02*
X017759Y007409D01*
X018171Y007568D02*
X017161Y007568D01*
X017778Y007726D02*
X018171Y007726D01*
X018171Y007885D02*
X017879Y007885D01*
X017911Y008043D02*
X018171Y008043D01*
X018171Y008202D02*
X017891Y008202D01*
X017808Y008361D02*
X018171Y008361D01*
X018171Y008519D02*
X017573Y008519D01*
X017655Y008678D02*
X018171Y008678D01*
X018171Y008836D02*
X017758Y008836D01*
X017770Y008995D02*
X018171Y008995D01*
X018171Y009153D02*
X017691Y009153D01*
X017739Y009312D02*
X018171Y009312D01*
X018171Y009470D02*
X017863Y009470D01*
X017911Y009629D02*
X018171Y009629D01*
X018178Y009787D02*
X017908Y009787D01*
X017842Y009946D02*
X018158Y009946D01*
X018097Y010105D02*
X017669Y010105D01*
X017973Y010263D02*
X000890Y010263D01*
X000766Y010105D02*
X004998Y010105D01*
X004951Y010058D02*
X004951Y009309D01*
X005057Y009203D01*
X005806Y009203D01*
X005911Y009309D01*
X005911Y010058D01*
X005806Y010163D01*
X005057Y010163D01*
X004951Y010058D01*
X004951Y009946D02*
X000705Y009946D01*
X000684Y009787D02*
X004951Y009787D01*
X004951Y009629D02*
X000691Y009629D01*
X000691Y009470D02*
X004951Y009470D01*
X004951Y009312D02*
X000691Y009312D01*
X000691Y009153D02*
X010784Y009153D01*
X010703Y009276D02*
X010838Y009411D01*
X010911Y009588D01*
X010911Y009779D01*
X010838Y009955D01*
X010703Y010090D01*
X010527Y010163D01*
X010336Y010163D01*
X010159Y010090D01*
X010024Y009955D01*
X009951Y009779D01*
X009951Y009588D01*
X010024Y009411D01*
X010159Y009276D01*
X010336Y009203D01*
X010527Y009203D01*
X010703Y009276D01*
X010739Y009312D02*
X011124Y009312D01*
X011159Y009276D02*
X011024Y009411D01*
X010951Y009588D01*
X010951Y009779D01*
X011024Y009955D01*
X011159Y010090D01*
X011336Y010163D01*
X011527Y010163D01*
X011703Y010090D01*
X011838Y009955D01*
X011911Y009779D01*
X011911Y009588D01*
X011838Y009411D01*
X011703Y009276D01*
X011527Y009203D01*
X011336Y009203D01*
X011159Y009276D01*
X011000Y009470D02*
X010863Y009470D01*
X010911Y009629D02*
X010951Y009629D01*
X010955Y009787D02*
X010908Y009787D01*
X010842Y009946D02*
X011021Y009946D01*
X011194Y010105D02*
X010669Y010105D01*
X010194Y010105D02*
X009669Y010105D01*
X009703Y010090D02*
X009527Y010163D01*
X009336Y010163D01*
X009159Y010090D01*
X009024Y009955D01*
X008951Y009779D01*
X008951Y009588D01*
X009024Y009411D01*
X009159Y009276D01*
X009336Y009203D01*
X009527Y009203D01*
X009703Y009276D01*
X009838Y009411D01*
X009911Y009588D01*
X009911Y009779D01*
X009838Y009955D01*
X009703Y010090D01*
X009842Y009946D02*
X010021Y009946D01*
X009955Y009787D02*
X009908Y009787D01*
X009911Y009629D02*
X009951Y009629D01*
X010000Y009470D02*
X009863Y009470D01*
X009739Y009312D02*
X010124Y009312D01*
X010611Y008995D02*
X008988Y008995D01*
X009146Y008836D02*
X010435Y008836D01*
X010162Y008678D02*
X009305Y008678D01*
X009463Y008519D02*
X010001Y008519D01*
X009968Y008361D02*
X009622Y008361D01*
X009780Y008202D02*
X010010Y008202D01*
X009939Y008043D02*
X010212Y008043D01*
X010401Y008043D02*
X011701Y008043D01*
X011609Y008202D02*
X010603Y008202D01*
X010684Y008361D02*
X011593Y008361D01*
X011663Y008519D02*
X010860Y008519D01*
X010931Y008933D02*
X010306Y008371D01*
X010098Y007885D02*
X011701Y007885D01*
X011701Y007726D02*
X010256Y007726D01*
X010407Y007568D02*
X011701Y007568D01*
X011701Y007409D02*
X010441Y007409D01*
X010411Y007251D02*
X011701Y007251D01*
X011701Y007092D02*
X010411Y007092D01*
X010411Y006934D02*
X011856Y006934D01*
X012014Y006775D02*
X010411Y006775D01*
X010411Y006617D02*
X012634Y006617D01*
X012471Y006458D02*
X010411Y006458D01*
X010310Y006299D02*
X012436Y006299D01*
X012478Y006141D02*
X010152Y006141D01*
X009993Y005982D02*
X012677Y005982D01*
X012616Y005824D02*
X012934Y005824D01*
X012975Y005665D02*
X012775Y005665D01*
X012916Y006617D02*
X012955Y006617D01*
X012997Y007163D02*
X012277Y007163D01*
X012161Y007279D01*
X012161Y007599D01*
X012239Y007521D01*
X012364Y007470D01*
X012499Y007470D01*
X012623Y007521D01*
X012680Y007578D01*
X012899Y007578D01*
X012942Y007578D01*
X012934Y007553D01*
X012921Y007474D01*
X012921Y007452D01*
X013413Y007452D01*
X013413Y007415D01*
X012921Y007415D01*
X012921Y007393D01*
X012934Y007314D01*
X012959Y007238D01*
X012995Y007166D01*
X012997Y007163D01*
X012954Y007251D02*
X012189Y007251D01*
X012161Y007409D02*
X012921Y007409D01*
X012939Y007568D02*
X012670Y007568D01*
X012193Y007568D02*
X012161Y007568D01*
X012668Y008519D02*
X012843Y008519D01*
X012527Y009203D02*
X012336Y009203D01*
X012159Y009276D01*
X012024Y009411D01*
X011951Y009588D01*
X011951Y009779D01*
X012024Y009955D01*
X012159Y010090D01*
X012336Y010163D01*
X012527Y010163D01*
X012703Y010090D01*
X012838Y009955D01*
X012911Y009779D01*
X012911Y009588D01*
X012838Y009411D01*
X012703Y009276D01*
X012527Y009203D01*
X012739Y009312D02*
X013124Y009312D01*
X013159Y009276D02*
X013336Y009203D01*
X013527Y009203D01*
X013703Y009276D01*
X013838Y009411D01*
X013911Y009588D01*
X013911Y009779D01*
X013838Y009955D01*
X013703Y010090D01*
X013527Y010163D01*
X013336Y010163D01*
X013159Y010090D01*
X013024Y009955D01*
X012951Y009779D01*
X012951Y009588D01*
X013024Y009411D01*
X013159Y009276D01*
X013000Y009470D02*
X012863Y009470D01*
X012911Y009629D02*
X012951Y009629D01*
X012955Y009787D02*
X012908Y009787D01*
X012842Y009946D02*
X013021Y009946D01*
X013194Y010105D02*
X012669Y010105D01*
X012194Y010105D02*
X011669Y010105D01*
X011842Y009946D02*
X012021Y009946D01*
X011955Y009787D02*
X011908Y009787D01*
X011911Y009629D02*
X011951Y009629D01*
X012000Y009470D02*
X011863Y009470D01*
X011739Y009312D02*
X012124Y009312D01*
X010931Y008933D02*
X014931Y008933D01*
X015191Y009153D02*
X015201Y009153D01*
X015124Y009312D02*
X014739Y009312D01*
X014703Y009276D02*
X014838Y009411D01*
X014911Y009588D01*
X014911Y009779D01*
X014838Y009955D01*
X014703Y010090D01*
X014527Y010163D01*
X014336Y010163D01*
X014159Y010090D01*
X014024Y009955D01*
X013951Y009779D01*
X013951Y009588D01*
X014024Y009411D01*
X014159Y009276D01*
X014336Y009203D01*
X014527Y009203D01*
X014703Y009276D01*
X014863Y009470D02*
X015000Y009470D01*
X014951Y009629D02*
X014911Y009629D01*
X014908Y009787D02*
X014955Y009787D01*
X015021Y009946D02*
X014842Y009946D01*
X014669Y010105D02*
X015194Y010105D01*
X015669Y010105D02*
X016194Y010105D01*
X016021Y009946D02*
X015842Y009946D01*
X015908Y009787D02*
X015955Y009787D01*
X015951Y009629D02*
X015911Y009629D01*
X015863Y009470D02*
X016000Y009470D01*
X016124Y009312D02*
X015739Y009312D01*
X015661Y009153D02*
X016201Y009153D01*
X016201Y008995D02*
X015661Y008995D01*
X015661Y008836D02*
X016201Y008836D01*
X016201Y008678D02*
X015661Y008678D01*
X015661Y008519D02*
X016201Y008519D01*
X016201Y008361D02*
X015661Y008361D01*
X015661Y008202D02*
X016201Y008202D01*
X016201Y008043D02*
X015661Y008043D01*
X015661Y007885D02*
X016201Y007885D01*
X016201Y007726D02*
X015661Y007726D01*
X015661Y007568D02*
X016201Y007568D01*
X016201Y007409D02*
X015661Y007409D01*
X015661Y007251D02*
X016201Y007251D01*
X016201Y007092D02*
X015661Y007092D01*
X015661Y006934D02*
X016201Y006934D01*
X016201Y006775D02*
X015661Y006775D01*
X015661Y006617D02*
X016201Y006617D01*
X016201Y006458D02*
X015661Y006458D01*
X015661Y006299D02*
X016097Y006299D01*
X015939Y006141D02*
X015661Y006141D01*
X015661Y005982D02*
X015780Y005982D01*
X016431Y005433D02*
X014369Y003371D01*
X014132Y003129D02*
X013901Y003129D01*
X013931Y003527D02*
X013088Y002683D01*
X012181Y002683D01*
X011868Y002812D02*
X008941Y002812D01*
X008941Y002970D02*
X011989Y002970D01*
X012374Y002970D02*
X013007Y002970D01*
X013032Y003129D02*
X008941Y003129D01*
X008941Y003287D02*
X010349Y003287D01*
X010236Y003446D02*
X008941Y003446D01*
X008941Y003604D02*
X010218Y003604D01*
X010282Y003763D02*
X008941Y003763D01*
X009037Y003921D02*
X013593Y003921D01*
X013931Y003933D02*
X013931Y003527D01*
X013641Y003604D02*
X013477Y003604D01*
X013635Y003763D02*
X013271Y003763D01*
X013092Y003763D02*
X011970Y003763D01*
X011806Y003558D02*
X011931Y003433D01*
X013181Y003433D01*
X011806Y003558D02*
X010556Y003558D01*
X010764Y003287D02*
X011710Y003287D01*
X011843Y002653D02*
X008941Y002653D01*
X008941Y002494D02*
X011893Y002494D01*
X011710Y004080D02*
X009196Y004080D01*
X009181Y004433D02*
X008681Y003933D01*
X008681Y001683D01*
X008225Y002019D02*
X008138Y002019D01*
X007952Y002177D02*
X008411Y002177D01*
X008421Y002336D02*
X000691Y002336D01*
X000691Y002494D02*
X003018Y002494D01*
X002968Y002653D02*
X000691Y002653D01*
X000691Y002812D02*
X002993Y002812D01*
X003114Y002970D02*
X000691Y002970D01*
X000691Y003129D02*
X003759Y003129D01*
X003918Y003287D02*
X000691Y003287D01*
X000691Y003446D02*
X001440Y003446D01*
X001394Y003491D02*
X001490Y003396D01*
X001614Y003345D01*
X001749Y003345D01*
X001873Y003396D01*
X001969Y003491D01*
X002020Y003616D01*
X002020Y003751D01*
X001969Y003875D01*
X001873Y003971D01*
X001764Y004016D01*
X001719Y004125D01*
X001623Y004221D01*
X001499Y004272D01*
X001364Y004272D01*
X001240Y004221D01*
X001144Y004125D01*
X001093Y004001D01*
X001093Y003866D01*
X001144Y003741D01*
X001240Y003646D01*
X001349Y003601D01*
X001394Y003491D01*
X001341Y003604D02*
X000691Y003604D01*
X000691Y003763D02*
X001135Y003763D01*
X001093Y003921D02*
X000691Y003921D01*
X000691Y004080D02*
X001125Y004080D01*
X001283Y004238D02*
X000691Y004238D01*
X000691Y004397D02*
X002608Y004397D01*
X002561Y004445D02*
X002684Y004322D01*
X002844Y004255D01*
X003018Y004255D01*
X003179Y004322D01*
X003302Y004445D01*
X003369Y004605D01*
X003369Y004779D01*
X003302Y004940D01*
X003179Y005063D01*
X003018Y005129D01*
X002844Y005129D01*
X002684Y005063D01*
X002561Y004940D01*
X002494Y004779D01*
X002494Y004605D01*
X002561Y004445D01*
X002515Y004556D02*
X000691Y004556D01*
X000691Y004714D02*
X002494Y004714D01*
X002533Y004873D02*
X000691Y004873D01*
X000691Y005031D02*
X002652Y005031D01*
X003211Y005031D02*
X004355Y005031D01*
X004459Y005190D02*
X000691Y005190D01*
X000691Y005348D02*
X004729Y005348D01*
X004931Y005183D02*
X004681Y004933D01*
X004343Y004873D02*
X003330Y004873D01*
X003369Y004714D02*
X004422Y004714D01*
X004941Y004714D02*
X006090Y004714D01*
X006058Y004683D02*
X005991Y004521D01*
X005991Y004346D01*
X006058Y004184D01*
X006182Y004060D01*
X006344Y003993D01*
X006519Y003993D01*
X006681Y004060D01*
X006804Y004184D01*
X006871Y004346D01*
X006871Y004521D01*
X006804Y004683D01*
X006681Y004806D01*
X006519Y004873D01*
X006344Y004873D01*
X006182Y004806D01*
X006058Y004683D01*
X006191Y004873D02*
X006342Y004873D01*
X006521Y004873D02*
X007503Y004873D01*
X007344Y004714D02*
X006773Y004714D01*
X006857Y004556D02*
X007186Y004556D01*
X007027Y004397D02*
X006871Y004397D01*
X006869Y004238D02*
X006827Y004238D01*
X006710Y004080D02*
X006700Y004080D01*
X006681Y003683D02*
X005056Y003683D01*
X004681Y003683D01*
X003681Y002683D01*
X003306Y002683D01*
X003499Y002970D02*
X003600Y002970D01*
X004019Y002653D02*
X008421Y002653D01*
X008421Y002494D02*
X003860Y002494D01*
X004177Y002812D02*
X008421Y002812D01*
X008421Y002970D02*
X004336Y002970D01*
X004494Y003129D02*
X008421Y003129D01*
X008421Y003287D02*
X004653Y003287D01*
X004393Y003763D02*
X004265Y003763D01*
X004172Y003921D02*
X004577Y003921D01*
X003987Y004080D02*
X006163Y004080D01*
X006036Y004238D02*
X003830Y004238D01*
X003533Y004238D02*
X001580Y004238D01*
X001737Y004080D02*
X003375Y004080D01*
X003343Y003921D02*
X001922Y003921D01*
X002015Y003763D02*
X003385Y003763D01*
X003591Y003604D02*
X002015Y003604D01*
X001923Y003446D02*
X003690Y003446D01*
X003254Y004397D02*
X005991Y004397D01*
X006006Y004556D02*
X003348Y004556D01*
X005020Y004873D02*
X005922Y004873D01*
X006360Y005031D02*
X007662Y005031D01*
X007820Y005190D02*
X006395Y005190D01*
X006056Y005183D02*
X006056Y007183D01*
X006431Y007558D01*
X006681Y007558D01*
X007369Y006871D01*
X008994Y006871D01*
X009181Y007058D01*
X009494Y007058D01*
X009690Y006775D02*
X009698Y006775D01*
X009386Y006617D02*
X009059Y006617D01*
X009046Y006611D02*
X009046Y006611D01*
X009266Y006775D02*
X009298Y006775D01*
X009288Y006458D02*
X006316Y006458D01*
X006316Y006617D02*
X007303Y006617D01*
X007097Y006775D02*
X006316Y006775D01*
X006316Y006934D02*
X006938Y006934D01*
X006780Y007092D02*
X006333Y007092D01*
X006574Y007251D02*
X006621Y007251D01*
X007040Y007568D02*
X007399Y007568D01*
X007294Y007409D02*
X007198Y007409D01*
X006881Y007726D02*
X009521Y007726D01*
X009362Y007885D02*
X006528Y007885D01*
X006335Y007885D02*
X002441Y007885D01*
X002441Y007726D02*
X003504Y007726D01*
X003490Y007721D02*
X003394Y007625D01*
X003343Y007501D01*
X003343Y007366D01*
X003394Y007241D01*
X003490Y007146D01*
X003599Y007101D01*
X003644Y006991D01*
X003740Y006896D01*
X003864Y006845D01*
X003999Y006845D01*
X004123Y006896D01*
X004219Y006991D01*
X004270Y007116D01*
X004270Y007251D01*
X005803Y007251D01*
X005915Y007409D02*
X004184Y007409D01*
X004219Y007375D02*
X004123Y007471D01*
X004014Y007516D01*
X003969Y007625D01*
X003873Y007721D01*
X003749Y007772D01*
X003614Y007772D01*
X003490Y007721D01*
X003370Y007568D02*
X002441Y007568D01*
X002441Y007409D02*
X003343Y007409D01*
X003390Y007251D02*
X002441Y007251D01*
X002441Y007092D02*
X003603Y007092D01*
X003702Y006934D02*
X002441Y006934D01*
X002441Y006775D02*
X002664Y006775D01*
X002684Y006795D02*
X002561Y006672D01*
X002494Y006511D01*
X002494Y006338D01*
X002526Y006261D01*
X002499Y006272D01*
X002460Y006272D01*
X002441Y006291D01*
X002441Y008089D01*
X002469Y008116D01*
X002520Y008241D01*
X002520Y008376D01*
X002469Y008500D01*
X002373Y008596D01*
X002249Y008647D01*
X002114Y008647D01*
X001990Y008596D01*
X001894Y008500D01*
X001843Y008376D01*
X001843Y008241D01*
X001894Y008116D01*
X001921Y008089D01*
X001921Y007422D01*
X001873Y007471D01*
X001764Y007516D01*
X001719Y007625D01*
X001623Y007721D01*
X001499Y007772D01*
X001364Y007772D01*
X001240Y007721D01*
X001144Y007625D01*
X001093Y007501D01*
X001093Y007366D01*
X001144Y007241D01*
X001240Y007146D01*
X001349Y007101D01*
X001394Y006991D01*
X001490Y006896D01*
X001614Y006845D01*
X001749Y006845D01*
X001873Y006896D01*
X001921Y006944D01*
X001921Y006132D01*
X001961Y006036D01*
X002034Y005963D01*
X002093Y005904D01*
X002093Y005866D01*
X002144Y005741D01*
X002240Y005646D01*
X002364Y005595D01*
X002499Y005595D01*
X002623Y005646D01*
X002719Y005741D01*
X002770Y005866D01*
X002770Y006001D01*
X002761Y006022D01*
X002844Y005987D01*
X003018Y005987D01*
X003179Y006054D01*
X003302Y006177D01*
X003369Y006338D01*
X003369Y006511D01*
X003302Y006672D01*
X003179Y006795D01*
X003018Y006862D01*
X002844Y006862D01*
X002684Y006795D01*
X002538Y006617D02*
X002441Y006617D01*
X002441Y006458D02*
X002494Y006458D01*
X002510Y006299D02*
X002441Y006299D01*
X002181Y006183D02*
X002181Y008308D01*
X001859Y008202D02*
X000691Y008202D01*
X000691Y008043D02*
X001921Y008043D01*
X001921Y007885D02*
X000691Y007885D01*
X000691Y007726D02*
X001254Y007726D01*
X001120Y007568D02*
X000691Y007568D01*
X000691Y007409D02*
X001093Y007409D01*
X001140Y007251D02*
X000691Y007251D01*
X000691Y007092D02*
X001353Y007092D01*
X001452Y006934D02*
X000691Y006934D01*
X000691Y006775D02*
X001921Y006775D01*
X001921Y006617D02*
X000691Y006617D01*
X000691Y006458D02*
X001921Y006458D01*
X001921Y006299D02*
X000691Y006299D01*
X000691Y006141D02*
X001921Y006141D01*
X002181Y006183D02*
X002431Y005933D01*
X002110Y005824D02*
X000691Y005824D01*
X000691Y005982D02*
X002015Y005982D01*
X002220Y005665D02*
X000691Y005665D01*
X000691Y005507D02*
X005796Y005507D01*
X005796Y005665D02*
X002642Y005665D01*
X002753Y005824D02*
X005796Y005824D01*
X005796Y005982D02*
X002770Y005982D01*
X003266Y006141D02*
X005796Y006141D01*
X005796Y006299D02*
X003353Y006299D01*
X003369Y006458D02*
X005796Y006458D01*
X005796Y006617D02*
X003325Y006617D01*
X003199Y006775D02*
X005796Y006775D01*
X005796Y006934D02*
X004161Y006934D01*
X004260Y007092D02*
X005796Y007092D01*
X006073Y007568D02*
X003992Y007568D01*
X003859Y007726D02*
X006134Y007726D01*
X005993Y008519D02*
X008728Y008519D01*
X008887Y008361D02*
X002520Y008361D01*
X002450Y008519D02*
X005620Y008519D01*
X005494Y008678D02*
X000691Y008678D01*
X000691Y008836D02*
X005468Y008836D01*
X005517Y008995D02*
X000691Y008995D01*
X000691Y008519D02*
X001913Y008519D01*
X001843Y008361D02*
X000691Y008361D01*
X001609Y007726D02*
X001921Y007726D01*
X001921Y007568D02*
X001742Y007568D01*
X002441Y008043D02*
X009204Y008043D01*
X009045Y008202D02*
X002504Y008202D01*
X004219Y007375D02*
X004270Y007251D01*
X006316Y006299D02*
X009162Y006299D01*
X008878Y006248D02*
X008878Y006248D01*
X008805Y006174D02*
X008805Y006174D01*
X008771Y006141D02*
X006316Y006141D01*
X006316Y005982D02*
X008613Y005982D01*
X008454Y005824D02*
X006316Y005824D01*
X006316Y005665D02*
X008296Y005665D01*
X008137Y005507D02*
X006316Y005507D01*
X006355Y005348D02*
X007979Y005348D01*
X008397Y005031D02*
X009641Y005031D01*
X009671Y005190D02*
X008555Y005190D01*
X008714Y005348D02*
X009671Y005348D01*
X009473Y005507D02*
X008872Y005507D01*
X008996Y005630D02*
X008996Y005630D01*
X009031Y005665D02*
X009405Y005665D01*
X009744Y005715D02*
X009931Y005527D01*
X009931Y004965D01*
X009869Y004902D01*
X009869Y004433D01*
X009181Y004433D01*
X008936Y004556D02*
X008857Y004556D01*
X008773Y004714D02*
X009609Y004714D01*
X009609Y004873D02*
X008521Y004873D01*
X008342Y004873D02*
X008238Y004873D01*
X008090Y004714D02*
X008080Y004714D01*
X008006Y004556D02*
X007921Y004556D01*
X007991Y004397D02*
X007763Y004397D01*
X007604Y004238D02*
X008036Y004238D01*
X008163Y004080D02*
X007446Y004080D01*
X007287Y003921D02*
X008421Y003921D01*
X008421Y003763D02*
X007129Y003763D01*
X007015Y003604D02*
X008421Y003604D01*
X008421Y003446D02*
X006923Y003446D01*
X006681Y003683D02*
X008775Y005777D01*
X009025Y006027D01*
X009369Y006027D01*
X010191Y005348D02*
X010742Y005348D01*
X010656Y005190D02*
X010191Y005190D01*
X010191Y005031D02*
X010664Y005031D01*
X010763Y004873D02*
X010175Y004873D01*
X010129Y004714D02*
X011075Y004714D01*
X011234Y004556D02*
X010185Y004556D01*
X010208Y004397D02*
X011393Y004397D01*
X011551Y004238D02*
X010153Y004238D01*
X007411Y002177D02*
X000691Y002177D01*
X000691Y002019D02*
X003038Y002019D01*
X002968Y001860D02*
X000691Y001860D01*
X000691Y001702D02*
X002984Y001702D01*
X003093Y001543D02*
X000691Y001543D01*
X000691Y001385D02*
X007199Y001385D01*
X007347Y001226D02*
X000691Y001226D01*
X003306Y001808D02*
X006744Y001808D01*
X006869Y001683D01*
X007681Y001683D01*
X007225Y002019D02*
X006901Y002019D01*
X006641Y001543D02*
X003520Y001543D01*
X008016Y001226D02*
X008347Y001226D01*
X008199Y001385D02*
X008164Y001385D01*
X009016Y001226D02*
X009347Y001226D01*
X009199Y001385D02*
X009164Y001385D01*
X006056Y005183D02*
X004931Y005183D01*
X001921Y006934D02*
X001911Y006934D01*
X005806Y008808D02*
X008806Y008808D01*
X010181Y007433D01*
X008774Y007663D02*
X008774Y007663D01*
X008774Y007663D01*
X008678Y007568D02*
X007838Y007568D01*
X007527Y009203D02*
X007336Y009203D01*
X007159Y009276D01*
X007024Y009411D01*
X006951Y009588D01*
X006951Y009779D01*
X007024Y009955D01*
X007159Y010090D01*
X007336Y010163D01*
X007527Y010163D01*
X007703Y010090D01*
X007838Y009955D01*
X007911Y009779D01*
X007911Y009588D01*
X007838Y009411D01*
X007703Y009276D01*
X007527Y009203D01*
X007739Y009312D02*
X008124Y009312D01*
X008159Y009276D02*
X008336Y009203D01*
X008527Y009203D01*
X008703Y009276D01*
X008838Y009411D01*
X008911Y009588D01*
X008911Y009779D01*
X008838Y009955D01*
X008703Y010090D01*
X008527Y010163D01*
X008336Y010163D01*
X008159Y010090D01*
X008024Y009955D01*
X007951Y009779D01*
X007951Y009588D01*
X008024Y009411D01*
X008159Y009276D01*
X008000Y009470D02*
X007863Y009470D01*
X007911Y009629D02*
X007951Y009629D01*
X007955Y009787D02*
X007908Y009787D01*
X007842Y009946D02*
X008021Y009946D01*
X008194Y010105D02*
X007669Y010105D01*
X007194Y010105D02*
X006669Y010105D01*
X006703Y010090D02*
X006527Y010163D01*
X006336Y010163D01*
X006159Y010090D01*
X006024Y009955D01*
X005951Y009779D01*
X005951Y009588D01*
X006024Y009411D01*
X006159Y009276D01*
X006336Y009203D01*
X006527Y009203D01*
X006703Y009276D01*
X006838Y009411D01*
X006911Y009588D01*
X006911Y009779D01*
X006838Y009955D01*
X006703Y010090D01*
X006842Y009946D02*
X007021Y009946D01*
X006955Y009787D02*
X006908Y009787D01*
X006911Y009629D02*
X006951Y009629D01*
X007000Y009470D02*
X006863Y009470D01*
X006739Y009312D02*
X007124Y009312D01*
X006124Y009312D02*
X005911Y009312D01*
X005911Y009470D02*
X006000Y009470D01*
X005951Y009629D02*
X005911Y009629D01*
X005911Y009787D02*
X005955Y009787D01*
X005911Y009946D02*
X006021Y009946D01*
X005865Y010105D02*
X006194Y010105D01*
X008669Y010105D02*
X009194Y010105D01*
X009021Y009946D02*
X008842Y009946D01*
X008908Y009787D02*
X008955Y009787D01*
X008951Y009629D02*
X008911Y009629D01*
X008863Y009470D02*
X009000Y009470D01*
X009124Y009312D02*
X008739Y009312D01*
X013669Y010105D02*
X014194Y010105D01*
X014021Y009946D02*
X013842Y009946D01*
X013908Y009787D02*
X013955Y009787D01*
X013951Y009629D02*
X013911Y009629D01*
X013863Y009470D02*
X014000Y009470D01*
X014124Y009312D02*
X013739Y009312D01*
X016669Y010105D02*
X017194Y010105D01*
X017021Y009946D02*
X016842Y009946D01*
X016908Y009787D02*
X016955Y009787D01*
X016951Y009629D02*
X016911Y009629D01*
X016893Y009470D02*
X016863Y009470D01*
X017664Y010422D02*
X001198Y010422D01*
X016080Y004714D02*
X017097Y004714D01*
X016989Y004873D02*
X016238Y004873D01*
X016397Y005031D02*
X016951Y005031D01*
X016966Y005190D02*
X016667Y005190D01*
X016763Y005348D02*
X016816Y005348D01*
X017161Y006617D02*
X017244Y006617D01*
D16*
X015806Y007496D03*
X015119Y007058D03*
X014306Y008027D03*
X014306Y008558D03*
X014931Y008933D03*
X013181Y008558D03*
X012431Y008277D03*
X011931Y008308D03*
X012431Y007808D03*
X010306Y008371D03*
X009494Y007058D03*
X009619Y006371D03*
X009369Y006027D03*
X009744Y005715D03*
X010306Y004996D03*
X010994Y005121D03*
X011427Y005126D03*
X011931Y005183D03*
X012369Y005183D03*
X012775Y006308D03*
X009869Y004433D03*
X010556Y003558D03*
X012181Y002683D03*
X013181Y003433D03*
X012306Y003808D03*
X013931Y003933D03*
X014369Y003371D03*
X016431Y005433D03*
X017431Y008933D03*
X008431Y006215D03*
X007619Y007308D03*
X006431Y007558D03*
X007369Y008371D03*
X005806Y008808D03*
X003681Y007433D03*
X003931Y007183D03*
X002181Y008308D03*
X001431Y007433D03*
X001681Y007183D03*
X002431Y005933D03*
X004681Y004933D03*
X006056Y005183D03*
X006681Y003683D03*
X003931Y003683D03*
X003681Y003933D03*
X003306Y002683D03*
X003306Y001808D03*
X001681Y003683D03*
X001431Y003933D03*
D17*
X007619Y007308D02*
X008744Y007308D01*
X008869Y007433D01*
X009588Y007433D01*
X009681Y007340D01*
X009931Y007090D01*
X009931Y006683D01*
X009619Y006371D01*
X009713Y006027D02*
X009369Y006027D01*
X009369Y006027D01*
X009713Y006027D02*
X010181Y006496D01*
X010181Y007433D01*
X011931Y007183D02*
X011931Y008308D01*
X012431Y008277D02*
X012838Y008277D01*
X012963Y008152D01*
X013869Y008152D01*
X013994Y008027D01*
X014306Y008027D01*
X013931Y007683D02*
X013931Y007183D01*
X014431Y006683D01*
X014431Y006433D01*
X013931Y006683D02*
X013931Y006183D01*
X013931Y006121D01*
X014431Y005621D01*
X014431Y005433D01*
X013931Y005683D02*
X013931Y005152D01*
X013713Y004933D01*
X012619Y004933D01*
X012369Y005183D01*
X012681Y005433D02*
X012431Y005683D01*
X010088Y005683D01*
X009931Y005527D01*
X009775Y005683D02*
X009744Y005715D01*
X010994Y005121D02*
X011869Y004246D01*
X014744Y004246D01*
X016681Y006183D01*
X016681Y008933D01*
X017431Y009683D01*
X016431Y009683D02*
X016431Y006308D01*
X014588Y004465D01*
X012088Y004465D01*
X011427Y005126D01*
X011931Y005183D02*
X012431Y004683D01*
X014431Y004683D01*
X015431Y005683D01*
X015431Y009683D01*
X014931Y008933D02*
X014931Y008183D01*
X015119Y007996D01*
X015119Y007058D01*
X013931Y006683D02*
X013681Y006933D01*
X012181Y006933D01*
X011931Y007183D01*
X012431Y007808D02*
X012994Y007808D01*
X013119Y007933D01*
X013681Y007933D01*
X013931Y007683D01*
X014306Y008558D02*
X013181Y008558D01*
X016931Y008433D02*
X016931Y005558D01*
X017431Y005058D01*
X013931Y005683D02*
X013681Y005933D01*
X013150Y005933D01*
X012775Y006308D01*
X012681Y005433D02*
X013431Y005433D01*
X016931Y008433D02*
X017431Y008933D01*
M02*
