%
M48
M72
T01C0.0157
T02C0.0320
T03C0.0354
T04C0.0394
T05C0.0400
%
T01
X3305Y1805
X3305Y2680
X3930Y3680
X3680Y3930
X4680Y4930
X6055Y5180
X8430Y6211
X9368Y6024
X9617Y6367
X9743Y5711
X10305Y4930
X10992Y5055
X11425Y5060
X11930Y5180
X12367Y5180
X12774Y6305
X15117Y7055
X15805Y7493
X14305Y8024
X14305Y8555
X14930Y8930
X13180Y8555
X12430Y8274
X11930Y8305
X12430Y7805
X10305Y8368
X9493Y7055
X7617Y7305
X6430Y7555
X7368Y8368
X5805Y8805
X3680Y7430
X3930Y7180
X2180Y8305
X1430Y7430
X1680Y7180
X2430Y5930
X1430Y3930
X1680Y3680
X6680Y3680
X9868Y4430
X10555Y3555
X12180Y2680
X13180Y3430
X12305Y3805
X13930Y3930
X14367Y3367
X16430Y5430
X17430Y8930
T02
X8430Y4430
X6430Y4430
T03
X2930Y4689
X2930Y6421
X7680Y1680
X8680Y1680
X9680Y1680
T04
X13430Y5430
X14430Y5430
X14430Y6430
X13430Y6430
X13430Y7430
X14430Y7430
T05
X17430Y7055
X17430Y6055
X17430Y5055
X17430Y4055
X17430Y3055
X17430Y8055
X17430Y9680
X16430Y9680
X15430Y9680
X14430Y9680
X13430Y9680
X12430Y9680
X11430Y9680
X10430Y9680
X9430Y9680
X8430Y9680
X7430Y9680
X6430Y9680
X5430Y9680
M30
