G75*
G70*
%OFA0B0*%
%FSLAX24Y24*%
%IPPOS*%
%LPD*%
%AMOC8*
5,1,8,0,0,1.08239X$1,22.5*
%
%ADD10C,0.0120*%
%ADD11C,0.0050*%
%ADD12C,0.0080*%
D10*
X007290Y002660D02*
X007290Y002790D01*
X007291Y002826D01*
X007295Y002862D01*
X007303Y002898D01*
X007314Y002932D01*
X007329Y002966D01*
X007347Y002997D01*
X007368Y003027D01*
X007391Y003054D01*
X007418Y003080D01*
X007446Y003102D01*
X007477Y003121D01*
X007509Y003138D01*
X007543Y003151D01*
X007578Y003161D01*
X007614Y003167D01*
X007650Y003170D01*
X011270Y003170D01*
X011270Y003169D02*
X011307Y003166D01*
X011344Y003158D01*
X011379Y003147D01*
X011414Y003133D01*
X011446Y003115D01*
X011477Y003094D01*
X011506Y003071D01*
X011532Y003044D01*
X011556Y003015D01*
X011577Y002984D01*
X011594Y002951D01*
X011608Y002917D01*
X011619Y002881D01*
X011626Y002844D01*
X011630Y002807D01*
X011629Y002770D01*
X011630Y002770D02*
X011630Y002660D01*
X011629Y002624D01*
X011625Y002588D01*
X011617Y002552D01*
X011606Y002518D01*
X011591Y002484D01*
X011573Y002453D01*
X011552Y002423D01*
X011529Y002396D01*
X011502Y002370D01*
X011474Y002348D01*
X011443Y002329D01*
X011411Y002312D01*
X011377Y002299D01*
X011342Y002289D01*
X011306Y002283D01*
X011270Y002280D01*
X007650Y002280D01*
X007614Y002283D01*
X007578Y002289D01*
X007543Y002299D01*
X007509Y002312D01*
X007477Y002329D01*
X007446Y002348D01*
X007418Y002370D01*
X007391Y002396D01*
X007368Y002423D01*
X007347Y002453D01*
X007329Y002484D01*
X007314Y002518D01*
X007303Y002552D01*
X007295Y002588D01*
X007291Y002624D01*
X007290Y002660D01*
D11*
X010507Y001538D02*
X010507Y001267D01*
X010552Y001267D02*
X010462Y001267D01*
X010667Y001267D02*
X010667Y001403D01*
X010712Y001448D01*
X010802Y001448D01*
X010802Y001358D02*
X010667Y001358D01*
X010667Y001267D02*
X010802Y001267D01*
X010847Y001313D01*
X010802Y001358D01*
X010953Y001267D02*
X011043Y001267D01*
X010998Y001267D02*
X010998Y001448D01*
X011043Y001448D01*
X010998Y001538D02*
X010998Y001583D01*
X010961Y001767D02*
X011096Y001767D01*
X011141Y001813D01*
X011141Y001903D01*
X011096Y001948D01*
X010961Y001948D01*
X010961Y002038D02*
X010961Y001767D01*
X011252Y001948D02*
X011297Y001948D01*
X011387Y001858D01*
X011387Y001948D02*
X011387Y001767D01*
X011501Y001767D02*
X011637Y001767D01*
X011682Y001813D01*
X011637Y001858D01*
X011501Y001858D01*
X011501Y001903D02*
X011501Y001767D01*
X011501Y001903D02*
X011547Y001948D01*
X011637Y001948D01*
X011796Y001903D02*
X011796Y001813D01*
X011841Y001767D01*
X011931Y001767D01*
X011976Y001813D01*
X011976Y001903D01*
X011931Y001948D01*
X011841Y001948D01*
X011796Y001903D01*
X012091Y001903D02*
X012091Y001813D01*
X012136Y001767D01*
X012271Y001767D01*
X012271Y002038D01*
X012271Y001948D02*
X012136Y001948D01*
X012091Y001903D01*
X012672Y001948D02*
X012762Y001948D01*
X012717Y001993D02*
X012717Y001813D01*
X012672Y001767D01*
X012877Y001767D02*
X012877Y001948D01*
X013057Y001948D02*
X013057Y001813D01*
X013012Y001767D01*
X012877Y001767D01*
X013171Y001813D02*
X013171Y001903D01*
X013216Y001948D01*
X013306Y001948D01*
X013351Y001903D01*
X013351Y001813D01*
X013306Y001767D01*
X013216Y001767D01*
X013171Y001813D01*
X013462Y001767D02*
X013597Y001858D01*
X013462Y001948D01*
X013597Y002038D02*
X013597Y001767D01*
X013711Y001767D02*
X013846Y001767D01*
X013892Y001813D01*
X013846Y001858D01*
X013711Y001858D01*
X013711Y001903D02*
X013711Y001767D01*
X013711Y001903D02*
X013756Y001948D01*
X013846Y001948D01*
X014006Y001903D02*
X014006Y001858D01*
X014186Y001858D01*
X014186Y001813D02*
X014186Y001903D01*
X014141Y001948D01*
X014051Y001948D01*
X014006Y001903D01*
X014141Y001767D02*
X014186Y001813D01*
X014141Y001767D02*
X014051Y001767D01*
X014297Y001948D02*
X014342Y001948D01*
X014432Y001858D01*
X014432Y001948D02*
X014432Y001767D01*
X014546Y001813D02*
X014546Y001903D01*
X014591Y001948D01*
X014726Y001948D01*
X014726Y002038D02*
X014726Y001767D01*
X014591Y001767D01*
X014546Y001813D01*
X014829Y001583D02*
X014829Y001538D01*
X014829Y001448D02*
X014829Y001267D01*
X014874Y001267D02*
X014784Y001267D01*
X014677Y001313D02*
X014677Y001403D01*
X014632Y001448D01*
X014497Y001448D01*
X014383Y001403D02*
X014338Y001448D01*
X014202Y001448D01*
X014247Y001358D02*
X014338Y001358D01*
X014383Y001403D01*
X014383Y001267D02*
X014247Y001267D01*
X014202Y001313D01*
X014247Y001358D01*
X014088Y001313D02*
X014043Y001313D01*
X014043Y001267D01*
X014088Y001267D01*
X014088Y001313D01*
X013941Y001313D02*
X013941Y001403D01*
X013896Y001448D01*
X013760Y001448D01*
X013646Y001403D02*
X013601Y001448D01*
X013511Y001448D01*
X013466Y001403D01*
X013466Y001313D01*
X013511Y001267D01*
X013601Y001267D01*
X013646Y001313D01*
X013646Y001403D01*
X013760Y001267D02*
X013896Y001267D01*
X013941Y001313D01*
X014008Y001038D02*
X013827Y001038D01*
X013713Y001038D02*
X013578Y001038D01*
X013533Y000993D01*
X013533Y000903D01*
X013578Y000858D01*
X013713Y000858D01*
X013623Y000858D02*
X013533Y000767D01*
X013418Y000767D02*
X013328Y000767D01*
X013373Y000767D02*
X013373Y001038D01*
X013418Y001038D02*
X013328Y001038D01*
X013222Y000948D02*
X013132Y001038D01*
X013042Y000948D01*
X013042Y000767D01*
X012927Y000767D02*
X012747Y000767D01*
X012927Y000767D02*
X012927Y001038D01*
X013042Y000903D02*
X013222Y000903D01*
X013222Y000948D02*
X013222Y000767D01*
X013713Y000767D02*
X013713Y001038D01*
X013918Y000903D02*
X014008Y000903D01*
X014122Y000858D02*
X014122Y000813D01*
X014167Y000767D01*
X014257Y000767D01*
X014302Y000813D01*
X014257Y000903D02*
X014167Y000903D01*
X014122Y000858D01*
X014122Y000993D02*
X014167Y001038D01*
X014257Y001038D01*
X014302Y000993D01*
X014302Y000948D01*
X014257Y000903D01*
X014417Y000948D02*
X014462Y000903D01*
X014597Y000903D01*
X014711Y000858D02*
X014711Y000813D01*
X014756Y000767D01*
X014847Y000767D01*
X014892Y000813D01*
X014847Y000903D02*
X014756Y000903D01*
X014711Y000858D01*
X014711Y000993D02*
X014756Y001038D01*
X014847Y001038D01*
X014892Y000993D01*
X014892Y000948D01*
X014847Y000903D01*
X015006Y000813D02*
X015006Y001038D01*
X015186Y001038D02*
X015186Y000813D01*
X015141Y000767D01*
X015051Y000767D01*
X015006Y000813D01*
X015289Y000813D02*
X015289Y000767D01*
X015334Y000767D01*
X015334Y000813D01*
X015289Y000813D01*
X015289Y000903D02*
X015334Y000903D01*
X015334Y000948D01*
X015289Y000948D01*
X015289Y000903D01*
X015448Y000813D02*
X015448Y001038D01*
X015628Y001038D02*
X015628Y000813D01*
X015583Y000767D01*
X015493Y000767D01*
X015448Y000813D01*
X015743Y000767D02*
X015878Y000903D01*
X015923Y000858D02*
X015743Y001038D01*
X015923Y001038D02*
X015923Y000767D01*
X016037Y000813D02*
X016082Y000767D01*
X016172Y000767D01*
X016218Y000813D01*
X016172Y000903D02*
X016082Y000903D01*
X016037Y000858D01*
X016037Y000813D01*
X016172Y000903D02*
X016218Y000948D01*
X016218Y000993D01*
X016172Y001038D01*
X016082Y001038D01*
X016037Y000993D01*
X016064Y001267D02*
X016155Y001267D01*
X016200Y001313D01*
X016200Y001403D01*
X016155Y001448D01*
X016064Y001448D01*
X016019Y001403D01*
X016019Y001358D01*
X016200Y001358D01*
X016314Y001358D02*
X016494Y001358D01*
X016494Y001403D02*
X016449Y001448D01*
X016359Y001448D01*
X016314Y001403D01*
X016314Y001358D01*
X016359Y001267D02*
X016449Y001267D01*
X016494Y001313D01*
X016494Y001403D01*
X016605Y001448D02*
X016650Y001448D01*
X016740Y001358D01*
X016740Y001448D02*
X016740Y001267D01*
X016891Y001267D02*
X016891Y001493D01*
X016846Y001538D01*
X016846Y001403D02*
X016936Y001403D01*
X017039Y001313D02*
X017039Y001267D01*
X017084Y001267D01*
X017084Y001313D01*
X017039Y001313D01*
X017198Y001313D02*
X017198Y001448D01*
X017378Y001448D02*
X017378Y001313D01*
X017333Y001267D01*
X017288Y001313D01*
X017243Y001267D01*
X017198Y001313D01*
X017493Y001313D02*
X017493Y001448D01*
X017673Y001448D02*
X017673Y001313D01*
X017628Y001267D01*
X017583Y001313D01*
X017538Y001267D01*
X017493Y001313D01*
X017787Y001313D02*
X017787Y001448D01*
X017968Y001448D02*
X017968Y001313D01*
X017922Y001267D01*
X017877Y001313D01*
X017832Y001267D01*
X017787Y001313D01*
X017787Y001767D02*
X017787Y001948D01*
X017877Y002038D01*
X017968Y001948D01*
X017968Y001767D01*
X017968Y001903D02*
X017787Y001903D01*
X017673Y002038D02*
X017493Y002038D01*
X017583Y002038D02*
X017583Y001767D01*
X017378Y001767D02*
X017378Y001948D01*
X017333Y001948D01*
X017288Y001903D01*
X017243Y001948D01*
X017198Y001903D01*
X017198Y001767D01*
X017288Y001767D02*
X017288Y001903D01*
X017084Y001903D02*
X017084Y001813D01*
X017039Y001767D01*
X016948Y001767D01*
X016903Y001858D02*
X017084Y001858D01*
X017084Y001903D02*
X017039Y001948D01*
X016948Y001948D01*
X016903Y001903D01*
X016903Y001858D01*
X016789Y001903D02*
X016789Y001813D01*
X016744Y001767D01*
X016609Y001767D01*
X016609Y001722D02*
X016609Y001948D01*
X016744Y001948D01*
X016789Y001903D01*
X016699Y001677D02*
X016654Y001677D01*
X016609Y001722D01*
X016494Y001813D02*
X016449Y001858D01*
X016314Y001858D01*
X016314Y001903D02*
X016314Y001767D01*
X016449Y001767D01*
X016494Y001813D01*
X016449Y001948D02*
X016359Y001948D01*
X016314Y001903D01*
X016200Y001948D02*
X016110Y002038D01*
X016110Y001767D01*
X016200Y001767D02*
X016019Y001767D01*
X015905Y001813D02*
X015860Y001767D01*
X015770Y001767D01*
X015725Y001813D01*
X015725Y001858D01*
X015770Y001903D01*
X015905Y001903D01*
X015905Y001813D01*
X015905Y001903D02*
X015815Y001993D01*
X015725Y002038D01*
X015610Y002038D02*
X015610Y001813D01*
X015565Y001767D01*
X015475Y001767D01*
X015430Y001813D01*
X015430Y002038D01*
X015316Y001993D02*
X015271Y002038D01*
X015181Y002038D01*
X015135Y001993D01*
X015135Y001948D01*
X015316Y001767D01*
X015135Y001767D01*
X015168Y001448D02*
X015033Y001448D01*
X014988Y001403D01*
X014988Y001267D01*
X015168Y001267D02*
X015168Y001448D01*
X015283Y001403D02*
X015328Y001448D01*
X015418Y001448D01*
X015463Y001403D01*
X015463Y001313D01*
X015418Y001267D01*
X015328Y001267D01*
X015283Y001313D01*
X015283Y001403D01*
X015573Y001448D02*
X015618Y001448D01*
X015709Y001358D01*
X015709Y001448D02*
X015709Y001267D01*
X015815Y001267D02*
X015860Y001313D01*
X015860Y001493D01*
X015905Y001448D02*
X015815Y001448D01*
X014874Y001448D02*
X014829Y001448D01*
X014677Y001313D02*
X014632Y001267D01*
X014497Y001267D01*
X014462Y001038D02*
X014417Y000993D01*
X014417Y000948D01*
X014462Y000903D02*
X014417Y000858D01*
X014417Y000813D01*
X014462Y000767D01*
X014597Y000767D01*
X014597Y001038D01*
X014462Y001038D01*
X014008Y001038D02*
X014008Y000767D01*
X013827Y000767D01*
X013351Y001267D02*
X013351Y001448D01*
X013306Y001448D01*
X013261Y001403D01*
X013216Y001448D01*
X013171Y001403D01*
X013171Y001267D01*
X013261Y001267D02*
X013261Y001403D01*
X013057Y001267D02*
X012877Y001538D01*
X012762Y001448D02*
X012762Y001313D01*
X012717Y001267D01*
X012582Y001267D01*
X012582Y001448D01*
X012467Y001403D02*
X012422Y001358D01*
X012332Y001358D01*
X012287Y001313D01*
X012332Y001267D01*
X012467Y001267D01*
X012467Y001403D02*
X012422Y001448D01*
X012287Y001448D01*
X012173Y001448D02*
X012038Y001448D01*
X011993Y001403D01*
X011993Y001313D01*
X012038Y001267D01*
X012173Y001267D01*
X012173Y001538D01*
X011878Y001403D02*
X011833Y001448D01*
X011698Y001448D01*
X011743Y001358D02*
X011833Y001358D01*
X011878Y001403D01*
X011878Y001267D02*
X011743Y001267D01*
X011698Y001313D01*
X011743Y001358D01*
X011583Y001358D02*
X011403Y001358D01*
X011403Y001403D01*
X011448Y001448D01*
X011538Y001448D01*
X011583Y001403D01*
X011583Y001313D01*
X011538Y001267D01*
X011448Y001267D01*
X011289Y001267D02*
X011289Y001448D01*
X011199Y001448D02*
X011154Y001448D01*
X011199Y001448D02*
X011289Y001358D01*
X010552Y001538D02*
X010507Y001538D01*
X016261Y002861D02*
X016396Y002996D01*
X016441Y002951D02*
X016261Y003131D01*
X016441Y003131D02*
X016441Y002861D01*
X016555Y002861D02*
X016735Y002861D01*
X016735Y003131D01*
X016850Y003086D02*
X016850Y003041D01*
X016895Y002996D01*
X017030Y002996D01*
X017030Y002861D02*
X016895Y002861D01*
X016850Y002906D01*
X016850Y002951D01*
X016895Y002996D01*
X016850Y003086D02*
X016895Y003131D01*
X017030Y003131D01*
X017030Y002861D01*
X017030Y003861D02*
X016895Y003861D01*
X016850Y003906D01*
X016850Y003951D01*
X016895Y003996D01*
X017030Y003996D01*
X017030Y003861D02*
X017030Y004131D01*
X016895Y004131D01*
X016850Y004086D01*
X016850Y004041D01*
X016895Y003996D01*
X016735Y003951D02*
X016600Y003951D01*
X016555Y003996D01*
X016555Y004086D01*
X016600Y004131D01*
X016735Y004131D01*
X016735Y003861D01*
X016645Y003951D02*
X016555Y003861D01*
X016441Y003861D02*
X016441Y004131D01*
X016261Y003861D01*
X016261Y004131D01*
X016306Y004861D02*
X016261Y004906D01*
X016261Y005086D01*
X016306Y005131D01*
X016441Y005131D01*
X016441Y004861D01*
X016306Y004861D01*
X016555Y004861D02*
X016735Y004861D01*
X016735Y005131D01*
X016555Y005131D01*
X016645Y004996D02*
X016735Y004996D01*
X016850Y004996D02*
X016850Y005086D01*
X016895Y005131D01*
X017030Y005131D01*
X017030Y004861D01*
X017030Y004951D02*
X016895Y004951D01*
X016850Y004996D01*
X016940Y004951D02*
X016850Y004861D01*
X016895Y005861D02*
X016850Y005906D01*
X016850Y006086D01*
X016895Y006131D01*
X016985Y006131D01*
X017030Y006086D01*
X017030Y005906D01*
X016985Y005861D01*
X016895Y005861D01*
X016735Y005861D02*
X016735Y006131D01*
X016600Y006131D01*
X016555Y006086D01*
X016555Y005996D01*
X016600Y005951D01*
X016735Y005951D01*
X016645Y005951D02*
X016555Y005861D01*
X016441Y005861D02*
X016441Y006131D01*
X016261Y005861D01*
X016261Y006131D01*
X016261Y006861D02*
X016441Y006861D01*
X016441Y007131D01*
X016555Y007131D02*
X016735Y007131D01*
X016735Y006861D01*
X016555Y006861D01*
X016645Y006996D02*
X016735Y006996D01*
X016850Y007086D02*
X016850Y007131D01*
X016850Y007086D02*
X016940Y006996D01*
X016940Y006861D01*
X016940Y006996D02*
X017030Y007086D01*
X017030Y007131D01*
X016985Y007861D02*
X016895Y007861D01*
X016850Y007906D01*
X016850Y007996D01*
X016940Y007996D01*
X017030Y007906D02*
X016985Y007861D01*
X017030Y007906D02*
X017030Y008086D01*
X016985Y008131D01*
X016895Y008131D01*
X016850Y008086D01*
X016735Y008131D02*
X016555Y007861D01*
X016555Y008131D01*
X016441Y008131D02*
X016306Y008131D01*
X016261Y008086D01*
X016261Y007906D01*
X016306Y007861D01*
X016441Y007861D01*
X016441Y008131D01*
X016735Y008131D02*
X016735Y007861D01*
D12*
X011338Y002879D02*
X011277Y002940D01*
X011338Y002879D02*
X011338Y002570D01*
X011277Y002755D02*
X011400Y002755D01*
X011124Y002693D02*
X011000Y002817D01*
X010939Y002817D01*
X010778Y002755D02*
X010717Y002817D01*
X010593Y002817D01*
X010532Y002755D01*
X010532Y002693D01*
X010778Y002693D01*
X010778Y002632D02*
X010778Y002755D01*
X010778Y002632D02*
X010717Y002570D01*
X010593Y002570D01*
X010364Y002632D02*
X010364Y002755D01*
X010302Y002817D01*
X010179Y002817D01*
X010117Y002755D01*
X010117Y002693D01*
X010364Y002693D01*
X010364Y002632D02*
X010302Y002570D01*
X010179Y002570D01*
X009888Y002632D02*
X009826Y002570D01*
X009888Y002632D02*
X009888Y002879D01*
X009950Y002817D02*
X009826Y002817D01*
X009674Y002817D02*
X009674Y002570D01*
X009674Y002693D02*
X009550Y002817D01*
X009488Y002817D01*
X009328Y002755D02*
X009328Y002632D01*
X009267Y002570D01*
X009143Y002570D01*
X009081Y002632D01*
X009081Y002755D01*
X009143Y002817D01*
X009267Y002817D01*
X009328Y002755D01*
X008914Y002817D02*
X008914Y002570D01*
X008914Y002817D02*
X008729Y002817D01*
X008667Y002755D01*
X008667Y002570D01*
X008500Y002570D02*
X008376Y002570D01*
X008438Y002570D02*
X008438Y002817D01*
X008500Y002817D01*
X008438Y002940D02*
X008438Y003002D01*
X008223Y002755D02*
X008162Y002817D01*
X007976Y002817D01*
X007809Y002755D02*
X007747Y002817D01*
X007562Y002817D01*
X007624Y002693D02*
X007747Y002693D01*
X007809Y002755D01*
X007809Y002570D02*
X007624Y002570D01*
X007562Y002632D01*
X007624Y002693D01*
X007976Y002570D02*
X008162Y002570D01*
X008223Y002632D01*
X008223Y002755D01*
X011124Y002817D02*
X011124Y002570D01*
M02*
