%
M48
M72
T01C0.0157
T02C0.0320
T03C0.0354
T04C0.0394
T05C0.0400
%
T01
X3306Y1808
X3306Y2683
X3931Y3683
X3681Y3933
X4681Y4933
X6056Y5183
X8431Y6215
X9369Y6027
X9619Y6371
X9744Y5715
X10306Y4996
X10994Y5121
X11427Y5126
X11931Y5183
X12369Y5183
X12775Y6308
X15119Y7058
X15806Y7496
X14306Y8027
X14306Y8558
X14931Y8933
X13181Y8558
X12431Y8277
X11931Y8308
X12431Y7808
X10306Y8371
X9494Y7058
X7619Y7308
X6431Y7558
X7369Y8371
X5806Y8808
X3681Y7433
X3931Y7183
X2181Y8308
X1431Y7433
X1681Y7183
X2431Y5933
X1431Y3933
X1681Y3683
X6681Y3683
X9869Y4433
X10556Y3558
X12181Y2683
X13181Y3433
X12306Y3808
X13931Y3933
X14369Y3371
X16431Y5433
X17431Y8933
T02
X8431Y4433
X6431Y4433
T03
X2931Y4692
X2931Y6425
X7681Y1683
X8681Y1683
X9681Y1683
T04
X13431Y5433
X14431Y5433
X14431Y6433
X13431Y6433
X13431Y7433
X14431Y7433
T05
X17431Y7058
X17431Y6058
X17431Y5058
X17431Y4058
X17431Y3058
X17431Y8058
X17431Y9683
X16431Y9683
X15431Y9683
X14431Y9683
X13431Y9683
X12431Y9683
X11431Y9683
X10431Y9683
X9431Y9683
X8431Y9683
X7431Y9683
X6431Y9683
X5431Y9683
M30
