G75*
G70*
%OFA0B0*%
%FSLAX24Y24*%
%IPPOS*%
%LPD*%
%AMOC8*
5,1,8,0,0,1.08239X$1,22.5*
%
%ADD10C,0.0520*%
%ADD11R,0.0600X0.0600*%
%ADD12C,0.0600*%
%ADD13C,0.0660*%
%ADD14C,0.0317*%
%ADD15C,0.0160*%
%ADD16C,0.0100*%
D10*
X006430Y004430D03*
X008430Y004430D03*
D11*
X005430Y009680D03*
D12*
X006430Y009680D03*
X007430Y009680D03*
X008430Y009680D03*
X009430Y009680D03*
X010430Y009680D03*
X011430Y009680D03*
X012430Y009680D03*
X013430Y009680D03*
X014430Y009680D03*
X015430Y009680D03*
X016430Y009680D03*
X017430Y009680D03*
X017430Y008055D03*
X017430Y007055D03*
X017430Y006055D03*
X017430Y005055D03*
X017430Y004055D03*
X017430Y003055D03*
X009680Y001680D03*
X008680Y001680D03*
X007680Y001680D03*
D13*
X013430Y005430D03*
X014430Y005430D03*
X014430Y006430D03*
X013430Y006430D03*
X013430Y007430D03*
X014430Y007430D03*
D14*
X015117Y007055D03*
X015805Y007493D03*
X014305Y008024D03*
X014305Y008555D03*
X014930Y008930D03*
X013180Y008555D03*
X012430Y008274D03*
X011930Y008305D03*
X012430Y007805D03*
X010305Y008368D03*
X009493Y007055D03*
X009617Y006367D03*
X009368Y006024D03*
X009743Y005711D03*
X010305Y004930D03*
X010992Y005055D03*
X011425Y005060D03*
X011930Y005180D03*
X012367Y005180D03*
X012774Y006305D03*
X009868Y004430D03*
X010555Y003555D03*
X012180Y002680D03*
X013180Y003430D03*
X012305Y003805D03*
X013930Y003930D03*
X014367Y003367D03*
X016430Y005430D03*
X017430Y008930D03*
X008430Y006211D03*
X007524Y007242D03*
X006430Y007555D03*
X006680Y008180D03*
X004493Y008805D03*
X002180Y009805D03*
X001430Y007430D03*
X001680Y007180D03*
X002430Y005930D03*
X003930Y007180D03*
X003680Y007430D03*
X006055Y005180D03*
X004680Y004930D03*
X003680Y003930D03*
X003930Y003680D03*
X003305Y002680D03*
X003305Y001805D03*
X001680Y003680D03*
X001430Y003930D03*
X006680Y003680D03*
D15*
X000958Y000743D02*
X000834Y000834D01*
X000743Y000958D01*
X000696Y001103D01*
X000690Y001180D01*
X000690Y009647D01*
X000695Y009666D01*
X000690Y009698D01*
X000690Y009732D01*
X000686Y009742D01*
X000681Y009814D01*
X000715Y010007D01*
X000806Y010179D01*
X000946Y010315D01*
X001121Y010401D01*
X001205Y010420D01*
X017655Y010420D01*
X017739Y010401D01*
X017914Y010315D01*
X018054Y010179D01*
X018145Y010007D01*
X018179Y009814D01*
X018174Y009742D01*
X018170Y009732D01*
X018170Y009698D01*
X018165Y009666D01*
X018170Y009647D01*
X018170Y001180D01*
X018164Y001103D01*
X018117Y000958D01*
X018026Y000834D01*
X017902Y000743D01*
X017757Y000696D01*
X017680Y000690D01*
X001180Y000690D01*
X001103Y000696D01*
X000958Y000743D01*
X000953Y000747D02*
X017907Y000747D01*
X018079Y000906D02*
X000781Y000906D01*
X000709Y001064D02*
X018151Y001064D01*
X018170Y001223D02*
X009830Y001223D01*
X009775Y001200D02*
X009952Y001273D01*
X010087Y001408D01*
X010160Y001585D01*
X010160Y001775D01*
X010087Y001952D01*
X009952Y002087D01*
X009775Y002160D01*
X009585Y002160D01*
X009408Y002087D01*
X009273Y001952D01*
X009200Y001775D01*
X009200Y001585D01*
X009273Y001408D01*
X009408Y001273D01*
X009585Y001200D01*
X009775Y001200D01*
X009530Y001223D02*
X008830Y001223D01*
X008775Y001200D02*
X008585Y001200D01*
X008408Y001273D01*
X008273Y001408D01*
X008200Y001585D01*
X008200Y001775D01*
X008273Y001952D01*
X008408Y002087D01*
X008420Y002092D01*
X008420Y003982D01*
X008423Y003990D01*
X008342Y003990D01*
X008181Y004057D01*
X008057Y004181D01*
X007990Y004342D01*
X007990Y004518D01*
X008057Y004679D01*
X008181Y004803D01*
X008342Y004870D01*
X008518Y004870D01*
X008679Y004803D01*
X008803Y004679D01*
X008870Y004518D01*
X008870Y004488D01*
X009033Y004650D01*
X009128Y004690D01*
X009608Y004690D01*
X009608Y004950D01*
X009647Y005046D01*
X009670Y005069D01*
X009670Y005375D01*
X009551Y005424D01*
X009455Y005519D01*
X009404Y005644D01*
X009404Y005685D01*
X009300Y005685D01*
X009176Y005737D01*
X009149Y005764D01*
X009131Y005764D01*
X008994Y005626D01*
X008994Y005626D01*
X008960Y005593D01*
X008921Y005553D01*
X008921Y005553D01*
X007019Y003651D01*
X007019Y003613D01*
X006967Y003488D01*
X006872Y003393D01*
X006747Y003341D01*
X006613Y003341D01*
X006488Y003393D01*
X006461Y003420D01*
X004788Y003420D01*
X003827Y002460D01*
X003732Y002420D01*
X003524Y002420D01*
X003497Y002393D01*
X003372Y002341D01*
X003238Y002341D01*
X003113Y002393D01*
X003018Y002488D01*
X002966Y002613D01*
X002966Y002747D01*
X003018Y002872D01*
X003113Y002967D01*
X003238Y003019D01*
X003372Y003019D01*
X003497Y002967D01*
X003524Y002940D01*
X003572Y002940D01*
X003974Y003341D01*
X003863Y003341D01*
X003738Y003393D01*
X003643Y003488D01*
X003598Y003598D01*
X003488Y003643D01*
X003393Y003738D01*
X003341Y003863D01*
X003341Y003997D01*
X003393Y004122D01*
X003488Y004217D01*
X003613Y004269D01*
X003747Y004269D01*
X003872Y004217D01*
X003967Y004122D01*
X004012Y004012D01*
X004122Y003967D01*
X004217Y003872D01*
X004269Y003747D01*
X004269Y003636D01*
X004533Y003900D01*
X004628Y003940D01*
X006461Y003940D01*
X006488Y003967D01*
X006613Y004019D01*
X006651Y004019D01*
X008585Y005953D01*
X008803Y006171D01*
X008803Y006171D01*
X008842Y006209D01*
X008876Y006244D01*
X008876Y006244D01*
X008876Y006244D01*
X008924Y006264D01*
X008972Y006284D01*
X008972Y006284D01*
X009024Y006284D01*
X009075Y006284D01*
X009075Y006284D01*
X009148Y006284D01*
X009176Y006311D01*
X009279Y006354D01*
X009279Y006435D01*
X009330Y006559D01*
X009426Y006655D01*
X009550Y006706D01*
X009631Y006706D01*
X009700Y006775D01*
X009700Y006783D01*
X009684Y006768D01*
X009560Y006716D01*
X009425Y006716D01*
X009301Y006768D01*
X009281Y006788D01*
X009175Y006682D01*
X009140Y006647D01*
X009140Y006647D01*
X009140Y006647D01*
X009092Y006627D01*
X009044Y006608D01*
X009044Y006608D01*
X009044Y006608D01*
X008993Y006608D01*
X007419Y006607D01*
X007419Y006607D01*
X007367Y006607D01*
X007316Y006607D01*
X007316Y006607D01*
X007316Y006607D01*
X007266Y006628D01*
X007220Y006647D01*
X007220Y006647D01*
X007184Y006683D01*
X007147Y006720D01*
X007147Y006720D01*
X006606Y007261D01*
X006497Y007216D01*
X006459Y007216D01*
X006315Y007072D01*
X006315Y005399D01*
X006342Y005372D01*
X006394Y005247D01*
X006394Y005113D01*
X006342Y004988D01*
X006247Y004893D01*
X006122Y004841D01*
X005988Y004841D01*
X005863Y004893D01*
X005836Y004920D01*
X005038Y004920D01*
X005019Y004901D01*
X005019Y004863D01*
X004967Y004738D01*
X004872Y004643D01*
X004747Y004591D01*
X004613Y004591D01*
X004488Y004643D01*
X004393Y004738D01*
X004341Y004863D01*
X004341Y004997D01*
X004393Y005122D01*
X004488Y005217D01*
X004613Y005269D01*
X004651Y005269D01*
X004783Y005400D01*
X004878Y005440D01*
X005795Y005440D01*
X005795Y007232D01*
X005835Y007327D01*
X006091Y007584D01*
X006091Y007622D01*
X006143Y007747D01*
X006238Y007842D01*
X006363Y007894D01*
X006497Y007894D01*
X006622Y007842D01*
X006649Y007815D01*
X006732Y007815D01*
X006827Y007775D01*
X007217Y007386D01*
X007237Y007434D01*
X007332Y007530D01*
X007456Y007581D01*
X007591Y007581D01*
X007716Y007530D01*
X007773Y007472D01*
X008772Y007473D01*
X008892Y007592D01*
X008960Y007660D01*
X008960Y007660D01*
X009055Y007660D01*
X009582Y007660D01*
X008697Y008545D01*
X004712Y008545D01*
X004684Y008518D01*
X004560Y008466D01*
X004425Y008466D01*
X004301Y008518D01*
X004205Y008613D01*
X004154Y008738D01*
X004154Y008872D01*
X004205Y008997D01*
X004301Y009092D01*
X004425Y009144D01*
X004560Y009144D01*
X004684Y009092D01*
X004712Y009065D01*
X008857Y009065D01*
X008952Y009025D01*
X010400Y007577D01*
X010440Y007482D01*
X010440Y007378D01*
X010410Y007306D01*
X010410Y006492D01*
X010410Y006397D01*
X010410Y006397D01*
X010338Y006325D01*
X009973Y005960D01*
X010023Y005910D01*
X012525Y005910D01*
X012660Y005775D01*
X012775Y005660D01*
X012973Y005660D01*
X012998Y005719D01*
X013016Y005737D01*
X012919Y005835D01*
X012787Y005966D01*
X012706Y005966D01*
X012582Y006018D01*
X012487Y006113D01*
X012435Y006238D01*
X012435Y006372D01*
X012487Y006497D01*
X012582Y006592D01*
X012706Y006644D01*
X012841Y006644D01*
X012948Y006599D01*
X012990Y006700D01*
X012085Y006700D01*
X011835Y006950D01*
X011700Y007085D01*
X011700Y008056D01*
X011643Y008113D01*
X011591Y008238D01*
X011591Y008372D01*
X011643Y008497D01*
X011738Y008592D01*
X011863Y008644D01*
X011997Y008644D01*
X012122Y008592D01*
X012196Y008518D01*
X012238Y008561D01*
X012363Y008612D01*
X012497Y008612D01*
X012622Y008561D01*
X012679Y008504D01*
X012841Y008504D01*
X012841Y008622D01*
X012861Y008670D01*
X011030Y008670D01*
X010644Y008323D01*
X010644Y008300D01*
X010592Y008176D01*
X010497Y008080D01*
X010372Y008029D01*
X010238Y008029D01*
X010113Y008080D01*
X010018Y008176D01*
X009966Y008300D01*
X009966Y008435D01*
X010018Y008559D01*
X010113Y008655D01*
X010238Y008706D01*
X010293Y008706D01*
X010751Y009119D01*
X010783Y009150D01*
X010789Y009153D01*
X010795Y009158D01*
X010837Y009173D01*
X010878Y009190D01*
X010885Y009190D01*
X010892Y009192D01*
X010937Y009190D01*
X014711Y009190D01*
X014738Y009217D01*
X014863Y009269D01*
X014997Y009269D01*
X015122Y009217D01*
X015200Y009139D01*
X015200Y009256D01*
X015158Y009273D01*
X015023Y009408D01*
X014950Y009585D01*
X014950Y009775D01*
X015023Y009952D01*
X015158Y010087D01*
X015335Y010160D01*
X015525Y010160D01*
X015702Y010087D01*
X015837Y009952D01*
X015910Y009775D01*
X015910Y009585D01*
X015837Y009408D01*
X015702Y009273D01*
X015660Y009256D01*
X015660Y005860D01*
X016200Y006400D01*
X016200Y009256D01*
X016158Y009273D01*
X016023Y009408D01*
X015950Y009585D01*
X015950Y009775D01*
X016023Y009952D01*
X016158Y010087D01*
X016335Y010160D01*
X016525Y010160D01*
X016702Y010087D01*
X016837Y009952D01*
X016910Y009775D01*
X016910Y009585D01*
X016840Y009415D01*
X016967Y009543D01*
X016950Y009585D01*
X016950Y009775D01*
X017023Y009952D01*
X017158Y010087D01*
X017335Y010160D01*
X017525Y010160D01*
X017702Y010087D01*
X017837Y009952D01*
X017910Y009775D01*
X017910Y009585D01*
X017837Y009408D01*
X017702Y009273D01*
X017594Y009229D01*
X017622Y009217D01*
X017717Y009122D01*
X017769Y008997D01*
X017769Y008863D01*
X017717Y008738D01*
X017622Y008643D01*
X017497Y008591D01*
X017417Y008591D01*
X017360Y008535D01*
X017525Y008535D01*
X017702Y008462D01*
X017837Y008327D01*
X017910Y008150D01*
X017910Y007960D01*
X017837Y007783D01*
X017702Y007648D01*
X017525Y007575D01*
X017335Y007575D01*
X017160Y007647D01*
X017160Y007463D01*
X017335Y007535D01*
X017525Y007535D01*
X017702Y007462D01*
X017837Y007327D01*
X017910Y007150D01*
X017910Y006960D01*
X017837Y006783D01*
X017702Y006648D01*
X017525Y006575D01*
X017335Y006575D01*
X017160Y006647D01*
X017160Y006463D01*
X017335Y006535D01*
X017525Y006535D01*
X017702Y006462D01*
X017837Y006327D01*
X017910Y006150D01*
X017910Y005960D01*
X017837Y005783D01*
X017702Y005648D01*
X017525Y005575D01*
X017335Y005575D01*
X017165Y005645D01*
X017293Y005518D01*
X017335Y005535D01*
X017525Y005535D01*
X017702Y005462D01*
X017837Y005327D01*
X017910Y005150D01*
X017910Y004960D01*
X017837Y004783D01*
X017702Y004648D01*
X017525Y004575D01*
X017335Y004575D01*
X017158Y004648D01*
X017023Y004783D01*
X016950Y004960D01*
X016950Y005150D01*
X016967Y005192D01*
X016769Y005391D01*
X016769Y005363D01*
X016717Y005238D01*
X016622Y005143D01*
X016497Y005091D01*
X016459Y005091D01*
X014706Y003339D01*
X014706Y003300D01*
X014655Y003176D01*
X014559Y003080D01*
X014435Y003029D01*
X014300Y003029D01*
X014176Y003080D01*
X014080Y003176D01*
X014042Y003268D01*
X013234Y002460D01*
X013138Y002420D01*
X012399Y002420D01*
X012372Y002393D01*
X012247Y002341D01*
X012113Y002341D01*
X011988Y002393D01*
X011893Y002488D01*
X011841Y002613D01*
X011841Y002747D01*
X011893Y002872D01*
X011988Y002967D01*
X012113Y003019D01*
X012247Y003019D01*
X012372Y002967D01*
X012399Y002940D01*
X012979Y002940D01*
X013130Y003091D01*
X013113Y003091D01*
X012988Y003143D01*
X012961Y003170D01*
X011878Y003170D01*
X011783Y003210D01*
X011710Y003283D01*
X011697Y003295D01*
X010774Y003295D01*
X010747Y003268D01*
X010622Y003216D01*
X010488Y003216D01*
X010363Y003268D01*
X010268Y003363D01*
X010216Y003488D01*
X010216Y003622D01*
X010268Y003747D01*
X010363Y003842D01*
X010488Y003894D01*
X010622Y003894D01*
X010747Y003842D01*
X010774Y003815D01*
X011857Y003815D01*
X011952Y003775D01*
X012038Y003690D01*
X012961Y003690D01*
X012988Y003717D01*
X013113Y003769D01*
X013247Y003769D01*
X013372Y003717D01*
X013467Y003622D01*
X013519Y003497D01*
X013519Y003480D01*
X013670Y003631D01*
X013670Y003711D01*
X013643Y003738D01*
X013591Y003863D01*
X013591Y003997D01*
X013598Y004013D01*
X011805Y004013D01*
X011710Y004013D01*
X011710Y004013D01*
X011710Y004013D01*
X011646Y004077D01*
X011006Y004716D01*
X010925Y004716D01*
X010801Y004768D01*
X010705Y004863D01*
X010654Y004988D01*
X010654Y005122D01*
X010705Y005247D01*
X010801Y005342D01*
X010925Y005394D01*
X011060Y005394D01*
X011184Y005342D01*
X011206Y005320D01*
X011233Y005347D01*
X011358Y005398D01*
X011493Y005398D01*
X011617Y005347D01*
X011628Y005336D01*
X011643Y005372D01*
X011721Y005450D01*
X010190Y005450D01*
X010190Y004910D01*
X010150Y004814D01*
X010128Y004791D01*
X010128Y004649D01*
X010155Y004622D01*
X010206Y004497D01*
X010206Y004363D01*
X010155Y004238D01*
X010059Y004143D01*
X009935Y004091D01*
X009800Y004091D01*
X009676Y004143D01*
X009648Y004170D01*
X009288Y004170D01*
X008940Y003822D01*
X008940Y002092D01*
X008952Y002087D01*
X009087Y001952D01*
X009160Y001775D01*
X009160Y001585D01*
X009087Y001408D01*
X008952Y001273D01*
X008775Y001200D01*
X008530Y001223D02*
X007830Y001223D01*
X007775Y001200D02*
X007585Y001200D01*
X007408Y001273D01*
X007273Y001408D01*
X007268Y001420D01*
X006816Y001420D01*
X006720Y001460D01*
X006647Y001533D01*
X006635Y001545D01*
X003524Y001545D01*
X003497Y001518D01*
X003372Y001466D01*
X003238Y001466D01*
X003113Y001518D01*
X003018Y001613D01*
X002966Y001738D01*
X002966Y001872D01*
X003018Y001997D01*
X003113Y002092D01*
X003238Y002144D01*
X003372Y002144D01*
X003497Y002092D01*
X003524Y002065D01*
X006794Y002065D01*
X006890Y002025D01*
X006975Y001940D01*
X007268Y001940D01*
X007273Y001952D01*
X007408Y002087D01*
X007585Y002160D01*
X007775Y002160D01*
X007952Y002087D01*
X008087Y001952D01*
X008160Y001775D01*
X008160Y001585D01*
X008087Y001408D01*
X007952Y001273D01*
X007775Y001200D01*
X007530Y001223D02*
X000690Y001223D01*
X000690Y001381D02*
X007300Y001381D01*
X007680Y001680D02*
X006868Y001680D01*
X006743Y001805D01*
X003305Y001805D01*
X002983Y001698D02*
X000690Y001698D01*
X000690Y001857D02*
X002966Y001857D01*
X003036Y002015D02*
X000690Y002015D01*
X000690Y002174D02*
X008420Y002174D01*
X008420Y002332D02*
X000690Y002332D01*
X000690Y002491D02*
X003017Y002491D01*
X002966Y002649D02*
X000690Y002649D01*
X000690Y002808D02*
X002991Y002808D01*
X003112Y002966D02*
X000690Y002966D01*
X000690Y003125D02*
X003757Y003125D01*
X003915Y003283D02*
X000690Y003283D01*
X000690Y003442D02*
X001439Y003442D01*
X001393Y003488D02*
X001488Y003393D01*
X001613Y003341D01*
X001747Y003341D01*
X001872Y003393D01*
X001967Y003488D01*
X002019Y003613D01*
X002019Y003747D01*
X001967Y003872D01*
X001872Y003967D01*
X001762Y004012D01*
X001717Y004122D01*
X001622Y004217D01*
X001497Y004269D01*
X001363Y004269D01*
X001238Y004217D01*
X001143Y004122D01*
X001091Y003997D01*
X001091Y003863D01*
X001143Y003738D01*
X001238Y003643D01*
X001348Y003598D01*
X001393Y003488D01*
X001342Y003600D02*
X000690Y003600D01*
X000690Y003759D02*
X001134Y003759D01*
X001091Y003917D02*
X000690Y003917D01*
X000690Y004076D02*
X001124Y004076D01*
X001279Y004234D02*
X000690Y004234D01*
X000690Y004393D02*
X002608Y004393D01*
X002559Y004441D02*
X002682Y004318D01*
X002843Y004252D01*
X003017Y004252D01*
X003178Y004318D01*
X003301Y004441D01*
X003367Y004602D01*
X003367Y004776D01*
X003301Y004936D01*
X003178Y005059D01*
X003017Y005126D01*
X002843Y005126D01*
X002682Y005059D01*
X002559Y004936D01*
X002493Y004776D01*
X002493Y004602D01*
X002559Y004441D01*
X002514Y004551D02*
X000690Y004551D01*
X000690Y004710D02*
X002493Y004710D01*
X002531Y004868D02*
X000690Y004868D01*
X000690Y005027D02*
X002649Y005027D01*
X003211Y005027D02*
X004353Y005027D01*
X004456Y005185D02*
X000690Y005185D01*
X000690Y005344D02*
X004726Y005344D01*
X004930Y005180D02*
X004680Y004930D01*
X004341Y004868D02*
X003329Y004868D01*
X003367Y004710D02*
X004421Y004710D01*
X004939Y004710D02*
X006087Y004710D01*
X006057Y004679D02*
X005990Y004518D01*
X005990Y004342D01*
X006057Y004181D01*
X006181Y004057D01*
X006342Y003990D01*
X006518Y003990D01*
X006679Y004057D01*
X006803Y004181D01*
X006870Y004342D01*
X006870Y004518D01*
X006803Y004679D01*
X006679Y004803D01*
X006518Y004870D01*
X006342Y004870D01*
X006181Y004803D01*
X006057Y004679D01*
X006187Y004868D02*
X006338Y004868D01*
X006522Y004868D02*
X007500Y004868D01*
X007342Y004710D02*
X006773Y004710D01*
X006856Y004551D02*
X007183Y004551D01*
X007025Y004393D02*
X006870Y004393D01*
X006866Y004234D02*
X006825Y004234D01*
X006708Y004076D02*
X006698Y004076D01*
X006680Y003680D02*
X004680Y003680D01*
X003680Y002680D01*
X003305Y002680D01*
X003498Y002966D02*
X003598Y002966D01*
X004017Y002649D02*
X008420Y002649D01*
X008420Y002491D02*
X003858Y002491D01*
X004175Y002808D02*
X008420Y002808D01*
X008420Y002966D02*
X004334Y002966D01*
X004492Y003125D02*
X008420Y003125D01*
X008420Y003283D02*
X004651Y003283D01*
X004391Y003759D02*
X004264Y003759D01*
X004172Y003917D02*
X004573Y003917D01*
X003986Y004076D02*
X006162Y004076D01*
X006035Y004234D02*
X003831Y004234D01*
X003529Y004234D02*
X001581Y004234D01*
X001736Y004076D02*
X003374Y004076D01*
X003341Y003917D02*
X001922Y003917D01*
X002014Y003759D02*
X003384Y003759D01*
X003592Y003600D02*
X002014Y003600D01*
X001921Y003442D02*
X003689Y003442D01*
X003252Y004393D02*
X005990Y004393D01*
X006004Y004551D02*
X003346Y004551D01*
X005019Y004868D02*
X005923Y004868D01*
X006358Y005027D02*
X007659Y005027D01*
X007817Y005185D02*
X006394Y005185D01*
X006055Y005180D02*
X006055Y007180D01*
X006430Y007555D01*
X006680Y007555D01*
X007368Y006867D01*
X008992Y006868D01*
X009180Y007055D01*
X009493Y007055D01*
X009687Y006770D02*
X009695Y006770D01*
X009382Y006612D02*
X009054Y006612D01*
X009263Y006770D02*
X009298Y006770D01*
X009286Y006453D02*
X006315Y006453D01*
X006315Y006612D02*
X007306Y006612D01*
X007220Y006647D02*
X007220Y006647D01*
X007097Y006770D02*
X006315Y006770D01*
X006315Y006929D02*
X006939Y006929D01*
X006780Y007087D02*
X006330Y007087D01*
X006568Y007246D02*
X006622Y007246D01*
X007040Y007563D02*
X007411Y007563D01*
X007636Y007563D02*
X008862Y007563D01*
X008960Y007660D02*
X008960Y007660D01*
X009363Y007880D02*
X006532Y007880D01*
X006328Y007880D02*
X002440Y007880D01*
X002440Y007721D02*
X003497Y007721D01*
X003488Y007717D02*
X003393Y007622D01*
X003341Y007497D01*
X003341Y007363D01*
X003393Y007238D01*
X003488Y007143D01*
X003598Y007098D01*
X003643Y006988D01*
X003738Y006893D01*
X003863Y006841D01*
X003997Y006841D01*
X004122Y006893D01*
X004217Y006988D01*
X004269Y007113D01*
X004269Y007247D01*
X004217Y007372D01*
X004122Y007467D01*
X004012Y007512D01*
X003967Y007622D01*
X003872Y007717D01*
X003747Y007769D01*
X003613Y007769D01*
X003488Y007717D01*
X003368Y007563D02*
X002440Y007563D01*
X002440Y007404D02*
X003341Y007404D01*
X003390Y007246D02*
X002440Y007246D01*
X002440Y007087D02*
X003602Y007087D01*
X003702Y006929D02*
X002440Y006929D01*
X002440Y006770D02*
X002661Y006770D01*
X002682Y006792D02*
X002559Y006669D01*
X002493Y006508D01*
X002493Y006334D01*
X002525Y006257D01*
X002497Y006269D01*
X002459Y006269D01*
X002440Y006288D01*
X002440Y009586D01*
X002467Y009613D01*
X002519Y009738D01*
X002519Y009872D01*
X002467Y009997D01*
X002372Y010092D01*
X002247Y010144D01*
X002113Y010144D01*
X001988Y010092D01*
X001893Y009997D01*
X001841Y009872D01*
X001841Y009738D01*
X001893Y009613D01*
X001920Y009586D01*
X001920Y007419D01*
X001872Y007467D01*
X001762Y007512D01*
X001717Y007622D01*
X001622Y007717D01*
X001497Y007769D01*
X001363Y007769D01*
X001238Y007717D01*
X001143Y007622D01*
X001091Y007497D01*
X001091Y007363D01*
X001143Y007238D01*
X001238Y007143D01*
X001348Y007098D01*
X001393Y006988D01*
X001488Y006893D01*
X001613Y006841D01*
X001747Y006841D01*
X001872Y006893D01*
X001920Y006941D01*
X001920Y006128D01*
X001960Y006033D01*
X002033Y005960D01*
X002091Y005901D01*
X002091Y005863D01*
X002143Y005738D01*
X002238Y005643D01*
X002363Y005591D01*
X002497Y005591D01*
X002622Y005643D01*
X002717Y005738D01*
X002769Y005863D01*
X002769Y005997D01*
X002760Y006018D01*
X002843Y005984D01*
X003017Y005984D01*
X003178Y006051D01*
X003301Y006174D01*
X003367Y006334D01*
X003367Y006508D01*
X003301Y006669D01*
X003178Y006792D01*
X003017Y006858D01*
X002843Y006858D01*
X002682Y006792D01*
X002536Y006612D02*
X002440Y006612D01*
X002440Y006453D02*
X002493Y006453D01*
X002509Y006295D02*
X002440Y006295D01*
X002180Y006180D02*
X002180Y009805D01*
X001869Y009940D02*
X000703Y009940D01*
X000683Y009782D02*
X001841Y009782D01*
X001889Y009623D02*
X000690Y009623D01*
X000690Y009465D02*
X001920Y009465D01*
X001920Y009306D02*
X000690Y009306D01*
X000690Y009148D02*
X001920Y009148D01*
X001920Y008989D02*
X000690Y008989D01*
X000690Y008831D02*
X001920Y008831D01*
X001920Y008672D02*
X000690Y008672D01*
X000690Y008514D02*
X001920Y008514D01*
X001920Y008355D02*
X000690Y008355D01*
X000690Y008197D02*
X001920Y008197D01*
X001920Y008038D02*
X000690Y008038D01*
X000690Y007880D02*
X001920Y007880D01*
X001920Y007721D02*
X001613Y007721D01*
X001742Y007563D02*
X001920Y007563D01*
X001247Y007721D02*
X000690Y007721D01*
X000690Y007563D02*
X001118Y007563D01*
X001091Y007404D02*
X000690Y007404D01*
X000690Y007246D02*
X001140Y007246D01*
X001352Y007087D02*
X000690Y007087D01*
X000690Y006929D02*
X001452Y006929D01*
X001908Y006929D02*
X001920Y006929D01*
X001920Y006770D02*
X000690Y006770D01*
X000690Y006612D02*
X001920Y006612D01*
X001920Y006453D02*
X000690Y006453D01*
X000690Y006295D02*
X001920Y006295D01*
X001920Y006136D02*
X000690Y006136D01*
X000690Y005978D02*
X002015Y005978D01*
X002109Y005819D02*
X000690Y005819D01*
X000690Y005661D02*
X002220Y005661D01*
X002640Y005661D02*
X005795Y005661D01*
X005795Y005502D02*
X000690Y005502D01*
X002180Y006180D02*
X002430Y005930D01*
X002751Y005819D02*
X005795Y005819D01*
X005795Y005978D02*
X002769Y005978D01*
X003263Y006136D02*
X005795Y006136D01*
X005795Y006295D02*
X003351Y006295D01*
X003367Y006453D02*
X005795Y006453D01*
X005795Y006612D02*
X003324Y006612D01*
X003199Y006770D02*
X005795Y006770D01*
X005795Y006929D02*
X004158Y006929D01*
X004258Y007087D02*
X005795Y007087D01*
X005801Y007246D02*
X004269Y007246D01*
X004185Y007404D02*
X005911Y007404D01*
X006070Y007563D02*
X003992Y007563D01*
X003863Y007721D02*
X006132Y007721D01*
X006882Y007721D02*
X009521Y007721D01*
X009204Y008038D02*
X002440Y008038D01*
X002440Y008197D02*
X009046Y008197D01*
X008887Y008355D02*
X002440Y008355D01*
X002440Y008514D02*
X004311Y008514D01*
X004181Y008672D02*
X002440Y008672D01*
X002440Y008831D02*
X004154Y008831D01*
X004202Y008989D02*
X002440Y008989D01*
X002440Y009148D02*
X010780Y009148D01*
X010702Y009273D02*
X010837Y009408D01*
X010910Y009585D01*
X010910Y009775D01*
X010837Y009952D01*
X010702Y010087D01*
X010525Y010160D01*
X010335Y010160D01*
X010158Y010087D01*
X010023Y009952D01*
X009950Y009775D01*
X009950Y009585D01*
X010023Y009408D01*
X010158Y009273D01*
X010335Y009200D01*
X010525Y009200D01*
X010702Y009273D01*
X010735Y009306D02*
X011125Y009306D01*
X011158Y009273D02*
X011023Y009408D01*
X010950Y009585D01*
X010950Y009775D01*
X011023Y009952D01*
X011158Y010087D01*
X011335Y010160D01*
X011525Y010160D01*
X011702Y010087D01*
X011837Y009952D01*
X011910Y009775D01*
X011910Y009585D01*
X011837Y009408D01*
X011702Y009273D01*
X011525Y009200D01*
X011335Y009200D01*
X011158Y009273D01*
X011000Y009465D02*
X010860Y009465D01*
X010910Y009623D02*
X010950Y009623D01*
X010953Y009782D02*
X010907Y009782D01*
X010842Y009940D02*
X011018Y009940D01*
X011186Y010099D02*
X010674Y010099D01*
X010186Y010099D02*
X009674Y010099D01*
X009702Y010087D02*
X009525Y010160D01*
X009335Y010160D01*
X009158Y010087D01*
X009023Y009952D01*
X008950Y009775D01*
X008950Y009585D01*
X009023Y009408D01*
X009158Y009273D01*
X009335Y009200D01*
X009525Y009200D01*
X009702Y009273D01*
X009837Y009408D01*
X009910Y009585D01*
X009910Y009775D01*
X009837Y009952D01*
X009702Y010087D01*
X009842Y009940D02*
X010018Y009940D01*
X009953Y009782D02*
X009907Y009782D01*
X009910Y009623D02*
X009950Y009623D01*
X010000Y009465D02*
X009860Y009465D01*
X009735Y009306D02*
X010125Y009306D01*
X010607Y008989D02*
X008989Y008989D01*
X009147Y008831D02*
X010431Y008831D01*
X010155Y008672D02*
X009306Y008672D01*
X009464Y008514D02*
X009999Y008514D01*
X009966Y008355D02*
X009623Y008355D01*
X009781Y008197D02*
X010009Y008197D01*
X009940Y008038D02*
X010215Y008038D01*
X010395Y008038D02*
X011700Y008038D01*
X011608Y008197D02*
X010601Y008197D01*
X010680Y008355D02*
X011591Y008355D01*
X011659Y008514D02*
X010856Y008514D01*
X010930Y008930D02*
X010305Y008368D01*
X010098Y007880D02*
X011700Y007880D01*
X011700Y007721D02*
X010257Y007721D01*
X010407Y007563D02*
X011700Y007563D01*
X011700Y007404D02*
X010440Y007404D01*
X010410Y007246D02*
X011700Y007246D01*
X011700Y007087D02*
X010410Y007087D01*
X010410Y006929D02*
X011856Y006929D01*
X012015Y006770D02*
X010410Y006770D01*
X010410Y006612D02*
X012629Y006612D01*
X012468Y006453D02*
X010410Y006453D01*
X010410Y006397D02*
X010410Y006397D01*
X010307Y006295D02*
X012435Y006295D01*
X012477Y006136D02*
X010149Y006136D01*
X009990Y005978D02*
X012679Y005978D01*
X012616Y005819D02*
X012934Y005819D01*
X012973Y005661D02*
X012775Y005661D01*
X011631Y005344D02*
X011621Y005344D01*
X011230Y005344D02*
X011181Y005344D01*
X010804Y005344D02*
X010190Y005344D01*
X010190Y005185D02*
X010680Y005185D01*
X010654Y005027D02*
X010190Y005027D01*
X010173Y004868D02*
X010703Y004868D01*
X011013Y004710D02*
X010128Y004710D01*
X010184Y004551D02*
X011171Y004551D01*
X011330Y004393D02*
X010206Y004393D01*
X010151Y004234D02*
X011488Y004234D01*
X011647Y004076D02*
X009193Y004076D01*
X009035Y003917D02*
X013591Y003917D01*
X013930Y003930D02*
X013930Y003524D01*
X013086Y002680D01*
X012180Y002680D01*
X011866Y002808D02*
X008940Y002808D01*
X008940Y002966D02*
X011987Y002966D01*
X012373Y002966D02*
X013005Y002966D01*
X013032Y003125D02*
X008940Y003125D01*
X008940Y003283D02*
X010348Y003283D01*
X010235Y003442D02*
X008940Y003442D01*
X008940Y003600D02*
X010216Y003600D01*
X010279Y003759D02*
X008940Y003759D01*
X008680Y003930D02*
X008680Y001680D01*
X009126Y001857D02*
X009234Y001857D01*
X009200Y001698D02*
X009160Y001698D01*
X009141Y001540D02*
X009219Y001540D01*
X009300Y001381D02*
X009060Y001381D01*
X008300Y001381D02*
X008060Y001381D01*
X008141Y001540D02*
X008219Y001540D01*
X008200Y001698D02*
X008160Y001698D01*
X008126Y001857D02*
X008234Y001857D01*
X008336Y002015D02*
X008024Y002015D01*
X007336Y002015D02*
X006900Y002015D01*
X006640Y001540D02*
X003519Y001540D01*
X003091Y001540D02*
X000690Y001540D01*
X006680Y003680D02*
X008774Y005774D01*
X009024Y006024D01*
X009367Y006024D01*
X009159Y006295D02*
X006315Y006295D01*
X006315Y006136D02*
X008768Y006136D01*
X008972Y006284D02*
X008972Y006284D01*
X008610Y005978D02*
X006315Y005978D01*
X006315Y005819D02*
X008451Y005819D01*
X008293Y005661D02*
X006315Y005661D01*
X006315Y005502D02*
X008134Y005502D01*
X007976Y005344D02*
X006354Y005344D01*
X006055Y005180D02*
X004930Y005180D01*
X007285Y003917D02*
X008420Y003917D01*
X008162Y004076D02*
X007443Y004076D01*
X007602Y004234D02*
X008035Y004234D01*
X007990Y004393D02*
X007760Y004393D01*
X007919Y004551D02*
X008004Y004551D01*
X008077Y004710D02*
X008087Y004710D01*
X008236Y004868D02*
X008338Y004868D01*
X008522Y004868D02*
X009608Y004868D01*
X009608Y004710D02*
X008773Y004710D01*
X008856Y004551D02*
X008933Y004551D01*
X009180Y004430D02*
X008680Y003930D01*
X008420Y003759D02*
X007126Y003759D01*
X007014Y003600D02*
X008420Y003600D01*
X008420Y003442D02*
X006921Y003442D01*
X008940Y002649D02*
X011841Y002649D01*
X011892Y002491D02*
X008940Y002491D01*
X008940Y002332D02*
X018170Y002332D01*
X018170Y002174D02*
X008940Y002174D01*
X009024Y002015D02*
X009336Y002015D01*
X010024Y002015D02*
X018170Y002015D01*
X018170Y001857D02*
X010126Y001857D01*
X010160Y001698D02*
X018170Y001698D01*
X018170Y001540D02*
X010141Y001540D01*
X010060Y001381D02*
X018170Y001381D01*
X018170Y002491D02*
X013264Y002491D01*
X013423Y002649D02*
X017172Y002649D01*
X017178Y002644D02*
X017246Y002610D01*
X017318Y002587D01*
X017392Y002575D01*
X017410Y002575D01*
X017410Y003035D01*
X017450Y003035D01*
X017450Y003075D01*
X017910Y003075D01*
X017910Y003093D01*
X017898Y003167D01*
X017875Y003239D01*
X017841Y003307D01*
X017796Y003368D01*
X017743Y003421D01*
X017682Y003466D01*
X017614Y003500D01*
X017542Y003523D01*
X017468Y003535D01*
X017450Y003535D01*
X017450Y003075D01*
X017410Y003075D01*
X017410Y003535D01*
X017392Y003535D01*
X017318Y003523D01*
X017246Y003500D01*
X017178Y003466D01*
X017117Y003421D01*
X017064Y003368D01*
X017019Y003307D01*
X016985Y003239D01*
X016962Y003167D01*
X016950Y003093D01*
X016950Y003075D01*
X017410Y003075D01*
X017410Y003035D01*
X016950Y003035D01*
X016950Y003017D01*
X016962Y002943D01*
X016985Y002871D01*
X017019Y002803D01*
X017064Y002742D01*
X017117Y002689D01*
X017178Y002644D01*
X017410Y002649D02*
X017450Y002649D01*
X017450Y002575D02*
X017468Y002575D01*
X017542Y002587D01*
X017614Y002610D01*
X017682Y002644D01*
X017743Y002689D01*
X017796Y002742D01*
X017841Y002803D01*
X017875Y002871D01*
X017898Y002943D01*
X017910Y003017D01*
X017910Y003035D01*
X017450Y003035D01*
X017450Y002575D01*
X017688Y002649D02*
X018170Y002649D01*
X018170Y002808D02*
X017843Y002808D01*
X017902Y002966D02*
X018170Y002966D01*
X018170Y003125D02*
X017905Y003125D01*
X017853Y003283D02*
X018170Y003283D01*
X018170Y003442D02*
X017715Y003442D01*
X017450Y003442D02*
X017410Y003442D01*
X017410Y003283D02*
X017450Y003283D01*
X017450Y003125D02*
X017410Y003125D01*
X017410Y002966D02*
X017450Y002966D01*
X017450Y002808D02*
X017410Y002808D01*
X017017Y002808D02*
X013581Y002808D01*
X013740Y002966D02*
X016958Y002966D01*
X016955Y003125D02*
X014604Y003125D01*
X014699Y003283D02*
X017007Y003283D01*
X017145Y003442D02*
X014809Y003442D01*
X014968Y003600D02*
X017274Y003600D01*
X017335Y003575D02*
X017525Y003575D01*
X017702Y003648D01*
X017837Y003783D01*
X017910Y003960D01*
X017910Y004150D01*
X017837Y004327D01*
X017702Y004462D01*
X017525Y004535D01*
X017335Y004535D01*
X017158Y004462D01*
X017023Y004327D01*
X016950Y004150D01*
X016950Y003960D01*
X017023Y003783D01*
X017158Y003648D01*
X017335Y003575D01*
X017048Y003759D02*
X015126Y003759D01*
X015285Y003917D02*
X016968Y003917D01*
X016950Y004076D02*
X015443Y004076D01*
X015602Y004234D02*
X016985Y004234D01*
X017089Y004393D02*
X015760Y004393D01*
X015919Y004551D02*
X018170Y004551D01*
X018170Y004393D02*
X017771Y004393D01*
X017875Y004234D02*
X018170Y004234D01*
X018170Y004076D02*
X017910Y004076D01*
X017892Y003917D02*
X018170Y003917D01*
X018170Y003759D02*
X017812Y003759D01*
X017586Y003600D02*
X018170Y003600D01*
X018170Y004710D02*
X017763Y004710D01*
X017872Y004868D02*
X018170Y004868D01*
X018170Y005027D02*
X017910Y005027D01*
X017896Y005185D02*
X018170Y005185D01*
X018170Y005344D02*
X017820Y005344D01*
X017605Y005502D02*
X018170Y005502D01*
X018170Y005661D02*
X017714Y005661D01*
X017852Y005819D02*
X018170Y005819D01*
X018170Y005978D02*
X017910Y005978D01*
X017910Y006136D02*
X018170Y006136D01*
X018170Y006295D02*
X017850Y006295D01*
X017711Y006453D02*
X018170Y006453D01*
X018170Y006612D02*
X017614Y006612D01*
X017824Y006770D02*
X018170Y006770D01*
X018170Y006929D02*
X017897Y006929D01*
X017910Y007087D02*
X018170Y007087D01*
X018170Y007246D02*
X017871Y007246D01*
X017760Y007404D02*
X018170Y007404D01*
X018170Y007563D02*
X017160Y007563D01*
X017775Y007721D02*
X018170Y007721D01*
X018170Y007880D02*
X017877Y007880D01*
X017910Y008038D02*
X018170Y008038D01*
X018170Y008197D02*
X017891Y008197D01*
X017809Y008355D02*
X018170Y008355D01*
X018170Y008514D02*
X017577Y008514D01*
X017651Y008672D02*
X018170Y008672D01*
X018170Y008831D02*
X017755Y008831D01*
X017769Y008989D02*
X018170Y008989D01*
X018170Y009148D02*
X017692Y009148D01*
X017735Y009306D02*
X018170Y009306D01*
X018170Y009465D02*
X017860Y009465D01*
X017910Y009623D02*
X018170Y009623D01*
X018177Y009782D02*
X017907Y009782D01*
X017842Y009940D02*
X018157Y009940D01*
X018097Y010099D02*
X017674Y010099D01*
X017974Y010257D02*
X000886Y010257D01*
X000763Y010099D02*
X002003Y010099D01*
X002357Y010099D02*
X004994Y010099D01*
X004950Y010055D02*
X004950Y009305D01*
X005055Y009200D01*
X005805Y009200D01*
X005910Y009305D01*
X005910Y010055D01*
X005805Y010160D01*
X005055Y010160D01*
X004950Y010055D01*
X004950Y009940D02*
X002491Y009940D01*
X002519Y009782D02*
X004950Y009782D01*
X004950Y009623D02*
X002471Y009623D01*
X002440Y009465D02*
X004950Y009465D01*
X004950Y009306D02*
X002440Y009306D01*
X001185Y010416D02*
X017675Y010416D01*
X017186Y010099D02*
X016674Y010099D01*
X016842Y009940D02*
X017018Y009940D01*
X016953Y009782D02*
X016907Y009782D01*
X016910Y009623D02*
X016950Y009623D01*
X016889Y009465D02*
X016860Y009465D01*
X016200Y009148D02*
X015660Y009148D01*
X015735Y009306D02*
X016125Y009306D01*
X016000Y009465D02*
X015860Y009465D01*
X015910Y009623D02*
X015950Y009623D01*
X015953Y009782D02*
X015907Y009782D01*
X015842Y009940D02*
X016018Y009940D01*
X016186Y010099D02*
X015674Y010099D01*
X015186Y010099D02*
X014674Y010099D01*
X014702Y010087D02*
X014525Y010160D01*
X014335Y010160D01*
X014158Y010087D01*
X014023Y009952D01*
X013950Y009775D01*
X013950Y009585D01*
X014023Y009408D01*
X014158Y009273D01*
X014335Y009200D01*
X014525Y009200D01*
X014702Y009273D01*
X014837Y009408D01*
X014910Y009585D01*
X014910Y009775D01*
X014837Y009952D01*
X014702Y010087D01*
X014842Y009940D02*
X015018Y009940D01*
X014953Y009782D02*
X014907Y009782D01*
X014910Y009623D02*
X014950Y009623D01*
X015000Y009465D02*
X014860Y009465D01*
X014735Y009306D02*
X015125Y009306D01*
X015192Y009148D02*
X015200Y009148D01*
X014930Y008930D02*
X010930Y008930D01*
X011735Y009306D02*
X012125Y009306D01*
X012158Y009273D02*
X012335Y009200D01*
X012525Y009200D01*
X012702Y009273D01*
X012837Y009408D01*
X012910Y009585D01*
X012910Y009775D01*
X012837Y009952D01*
X012702Y010087D01*
X012525Y010160D01*
X012335Y010160D01*
X012158Y010087D01*
X012023Y009952D01*
X011950Y009775D01*
X011950Y009585D01*
X012023Y009408D01*
X012158Y009273D01*
X012000Y009465D02*
X011860Y009465D01*
X011910Y009623D02*
X011950Y009623D01*
X011953Y009782D02*
X011907Y009782D01*
X011842Y009940D02*
X012018Y009940D01*
X012186Y010099D02*
X011674Y010099D01*
X012674Y010099D02*
X013186Y010099D01*
X013158Y010087D02*
X013023Y009952D01*
X012950Y009775D01*
X012950Y009585D01*
X013023Y009408D01*
X013158Y009273D01*
X013335Y009200D01*
X013525Y009200D01*
X013702Y009273D01*
X013837Y009408D01*
X013910Y009585D01*
X013910Y009775D01*
X013837Y009952D01*
X013702Y010087D01*
X013525Y010160D01*
X013335Y010160D01*
X013158Y010087D01*
X013018Y009940D02*
X012842Y009940D01*
X012907Y009782D02*
X012953Y009782D01*
X012950Y009623D02*
X012910Y009623D01*
X012860Y009465D02*
X013000Y009465D01*
X013125Y009306D02*
X012735Y009306D01*
X013735Y009306D02*
X014125Y009306D01*
X014000Y009465D02*
X013860Y009465D01*
X013910Y009623D02*
X013950Y009623D01*
X013953Y009782D02*
X013907Y009782D01*
X013842Y009940D02*
X014018Y009940D01*
X014186Y010099D02*
X013674Y010099D01*
X015660Y008989D02*
X016200Y008989D01*
X016200Y008831D02*
X015660Y008831D01*
X015660Y008672D02*
X016200Y008672D01*
X016200Y008514D02*
X015660Y008514D01*
X015660Y008355D02*
X016200Y008355D01*
X016200Y008197D02*
X015660Y008197D01*
X015660Y008038D02*
X016200Y008038D01*
X016200Y007880D02*
X015660Y007880D01*
X015660Y007721D02*
X016200Y007721D01*
X016200Y007563D02*
X015660Y007563D01*
X015660Y007404D02*
X016200Y007404D01*
X016200Y007246D02*
X015660Y007246D01*
X015660Y007087D02*
X016200Y007087D01*
X016200Y006929D02*
X015660Y006929D01*
X015660Y006770D02*
X016200Y006770D01*
X016200Y006612D02*
X015660Y006612D01*
X015660Y006453D02*
X016200Y006453D01*
X016094Y006295D02*
X015660Y006295D01*
X015660Y006136D02*
X015936Y006136D01*
X015777Y005978D02*
X015660Y005978D01*
X016430Y005430D02*
X014367Y003367D01*
X014131Y003125D02*
X013898Y003125D01*
X013639Y003600D02*
X013476Y003600D01*
X013634Y003759D02*
X013272Y003759D01*
X013088Y003759D02*
X011969Y003759D01*
X011805Y003555D02*
X011930Y003430D01*
X013180Y003430D01*
X011805Y003555D02*
X010555Y003555D01*
X010762Y003283D02*
X011709Y003283D01*
X009868Y004430D02*
X009180Y004430D01*
X009868Y004430D02*
X009868Y004899D01*
X009930Y004961D01*
X009930Y005524D01*
X009743Y005711D01*
X009473Y005502D02*
X008870Y005502D01*
X009028Y005661D02*
X009404Y005661D01*
X009670Y005344D02*
X008711Y005344D01*
X008553Y005185D02*
X009670Y005185D01*
X009639Y005027D02*
X008394Y005027D01*
X012160Y007275D02*
X012160Y007596D01*
X012238Y007518D01*
X012363Y007466D01*
X012497Y007466D01*
X012622Y007518D01*
X012679Y007575D01*
X012941Y007575D01*
X012933Y007549D01*
X012920Y007470D01*
X012920Y007448D01*
X013412Y007448D01*
X013412Y007412D01*
X012920Y007412D01*
X012920Y007390D01*
X012933Y007311D01*
X012957Y007234D01*
X012994Y007163D01*
X012996Y007160D01*
X012275Y007160D01*
X012160Y007275D01*
X012190Y007246D02*
X012954Y007246D01*
X012920Y007404D02*
X012160Y007404D01*
X012160Y007563D02*
X012193Y007563D01*
X012667Y007563D02*
X012937Y007563D01*
X012841Y008514D02*
X012669Y008514D01*
X010180Y007430D02*
X008805Y008805D01*
X004493Y008805D01*
X004674Y008514D02*
X008729Y008514D01*
X008525Y009200D02*
X008335Y009200D01*
X008158Y009273D01*
X008023Y009408D01*
X007950Y009585D01*
X007950Y009775D01*
X008023Y009952D01*
X008158Y010087D01*
X008335Y010160D01*
X008525Y010160D01*
X008702Y010087D01*
X008837Y009952D01*
X008910Y009775D01*
X008910Y009585D01*
X008837Y009408D01*
X008702Y009273D01*
X008525Y009200D01*
X008735Y009306D02*
X009125Y009306D01*
X009000Y009465D02*
X008860Y009465D01*
X008910Y009623D02*
X008950Y009623D01*
X008953Y009782D02*
X008907Y009782D01*
X008842Y009940D02*
X009018Y009940D01*
X009186Y010099D02*
X008674Y010099D01*
X008186Y010099D02*
X007674Y010099D01*
X007702Y010087D02*
X007525Y010160D01*
X007335Y010160D01*
X007158Y010087D01*
X007023Y009952D01*
X006950Y009775D01*
X006950Y009585D01*
X007023Y009408D01*
X007158Y009273D01*
X007335Y009200D01*
X007525Y009200D01*
X007702Y009273D01*
X007837Y009408D01*
X007910Y009585D01*
X007910Y009775D01*
X007837Y009952D01*
X007702Y010087D01*
X007842Y009940D02*
X008018Y009940D01*
X007953Y009782D02*
X007907Y009782D01*
X007910Y009623D02*
X007950Y009623D01*
X008000Y009465D02*
X007860Y009465D01*
X007735Y009306D02*
X008125Y009306D01*
X007125Y009306D02*
X006735Y009306D01*
X006702Y009273D02*
X006837Y009408D01*
X006910Y009585D01*
X006910Y009775D01*
X006837Y009952D01*
X006702Y010087D01*
X006525Y010160D01*
X006335Y010160D01*
X006158Y010087D01*
X006023Y009952D01*
X005950Y009775D01*
X005950Y009585D01*
X006023Y009408D01*
X006158Y009273D01*
X006335Y009200D01*
X006525Y009200D01*
X006702Y009273D01*
X006860Y009465D02*
X007000Y009465D01*
X006950Y009623D02*
X006910Y009623D01*
X006907Y009782D02*
X006953Y009782D01*
X007018Y009940D02*
X006842Y009940D01*
X006674Y010099D02*
X007186Y010099D01*
X006186Y010099D02*
X005866Y010099D01*
X005910Y009940D02*
X006018Y009940D01*
X005953Y009782D02*
X005910Y009782D01*
X005910Y009623D02*
X005950Y009623D01*
X005910Y009465D02*
X006000Y009465D01*
X005910Y009306D02*
X006125Y009306D01*
X007199Y007404D02*
X007224Y007404D01*
X012919Y006612D02*
X012953Y006612D01*
X016077Y004710D02*
X017097Y004710D01*
X016988Y004868D02*
X016236Y004868D01*
X016394Y005027D02*
X016950Y005027D01*
X016964Y005185D02*
X016664Y005185D01*
X016761Y005344D02*
X016816Y005344D01*
X017160Y006612D02*
X017246Y006612D01*
D16*
X016680Y006180D02*
X016680Y008930D01*
X017430Y009680D01*
X016430Y009680D02*
X016430Y006305D01*
X014586Y004461D01*
X012024Y004461D01*
X011425Y005060D01*
X010992Y005055D02*
X011805Y004243D01*
X014743Y004243D01*
X016680Y006180D01*
X016930Y005555D02*
X017430Y005055D01*
X016930Y005555D02*
X016930Y008430D01*
X017430Y008930D01*
X015430Y009680D02*
X015430Y005680D01*
X014430Y004680D01*
X012430Y004680D01*
X011930Y005180D01*
X012367Y005180D02*
X012618Y004930D01*
X013711Y004930D01*
X013930Y005149D01*
X013930Y005680D01*
X013680Y005930D01*
X013149Y005930D01*
X012774Y006305D01*
X012430Y005680D02*
X010086Y005680D01*
X009930Y005524D01*
X009774Y005680D02*
X009743Y005711D01*
X009711Y006024D02*
X009368Y006024D01*
X009367Y006024D01*
X009711Y006024D02*
X010180Y006493D01*
X010180Y007430D01*
X009930Y007086D02*
X009680Y007336D01*
X009586Y007430D01*
X009055Y007430D01*
X008867Y007243D01*
X007524Y007242D01*
X009617Y006367D02*
X009930Y006680D01*
X009930Y007086D01*
X011930Y007180D02*
X011930Y008305D01*
X012430Y008274D02*
X012836Y008274D01*
X012961Y008149D01*
X013868Y008149D01*
X013993Y008024D01*
X014305Y008024D01*
X013930Y007680D02*
X013930Y007180D01*
X014430Y006680D01*
X014430Y006430D01*
X013930Y006680D02*
X013930Y006180D01*
X013930Y006118D01*
X014430Y005618D01*
X014430Y005430D01*
X013430Y005430D02*
X012680Y005430D01*
X012430Y005680D01*
X013680Y006930D02*
X013930Y006680D01*
X013680Y006930D02*
X012180Y006930D01*
X011930Y007180D01*
X012430Y007805D02*
X012993Y007805D01*
X013118Y007930D01*
X013680Y007930D01*
X013930Y007680D01*
X014930Y008180D02*
X014930Y008930D01*
X014305Y008555D02*
X013180Y008555D01*
X014930Y008180D02*
X015118Y007993D01*
X015117Y007055D01*
M02*
