G75*
G70*
%OFA0B0*%
%FSLAX24Y24*%
%IPPOS*%
%LPD*%
%AMOC8*
5,1,8,0,0,1.08239X$1,22.5*
%
%ADD10C,0.0100*%
%ADD11C,0.0120*%
%ADD12C,0.0050*%
%ADD13C,0.0060*%
%ADD14C,0.0080*%
%ADD15C,0.0040*%
%ADD16C,0.0118*%
%ADD17C,0.0067*%
D10*
X018055Y006055D02*
X018305Y006055D01*
X018243Y005993D01*
X018305Y006055D02*
X018243Y006117D01*
X018243Y006118D01*
X018305Y006055D01*
X018305Y006055D01*
X018118Y006993D02*
X018055Y007055D01*
X018055Y007055D01*
X018118Y007118D01*
X018055Y007055D02*
X018305Y007055D01*
D11*
X017710Y001670D02*
X014090Y001670D01*
X014090Y001669D02*
X014053Y001666D01*
X014016Y001658D01*
X013981Y001647D01*
X013946Y001633D01*
X013914Y001615D01*
X013883Y001594D01*
X013854Y001571D01*
X013828Y001544D01*
X013804Y001515D01*
X013783Y001484D01*
X013766Y001451D01*
X013752Y001417D01*
X013741Y001381D01*
X013734Y001344D01*
X013730Y001307D01*
X013731Y001270D01*
X013730Y001270D02*
X013730Y001160D01*
X013731Y001124D01*
X013735Y001088D01*
X013743Y001052D01*
X013754Y001018D01*
X013769Y000984D01*
X013787Y000953D01*
X013808Y000923D01*
X013831Y000896D01*
X013858Y000870D01*
X013886Y000848D01*
X013917Y000829D01*
X013949Y000812D01*
X013983Y000799D01*
X014018Y000789D01*
X014054Y000783D01*
X014090Y000780D01*
X017710Y000780D01*
X017746Y000783D01*
X017782Y000789D01*
X017817Y000799D01*
X017851Y000812D01*
X017883Y000829D01*
X017914Y000848D01*
X017942Y000870D01*
X017969Y000896D01*
X017992Y000923D01*
X018013Y000953D01*
X018031Y000984D01*
X018046Y001018D01*
X018057Y001052D01*
X018065Y001088D01*
X018069Y001124D01*
X018070Y001160D01*
X018070Y001290D01*
X018069Y001326D01*
X018065Y001362D01*
X018057Y001398D01*
X018046Y001432D01*
X018031Y001466D01*
X018013Y001497D01*
X017992Y001527D01*
X017969Y001554D01*
X017942Y001580D01*
X017914Y001602D01*
X017883Y001621D01*
X017851Y001638D01*
X017817Y001651D01*
X017782Y001661D01*
X017746Y001667D01*
X017710Y001670D01*
D12*
X017759Y001830D02*
X017714Y001875D01*
X017714Y002100D01*
X017600Y002055D02*
X017555Y002100D01*
X017464Y002100D01*
X017419Y002055D01*
X017419Y001875D01*
X017464Y001830D01*
X017555Y001830D01*
X017600Y001875D01*
X017600Y002055D01*
X017894Y002100D02*
X017894Y001875D01*
X017849Y001830D01*
X017759Y001830D01*
X018099Y001830D02*
X018099Y002100D01*
X018009Y002100D02*
X018189Y002100D01*
X017305Y002100D02*
X017125Y001920D01*
X017170Y001965D02*
X017305Y001830D01*
X017125Y001830D02*
X017125Y002100D01*
X017010Y002010D02*
X017010Y001830D01*
X017010Y001965D02*
X016830Y001965D01*
X016830Y002010D02*
X016830Y001830D01*
X016716Y001830D02*
X016535Y001830D01*
X016535Y002100D01*
X016716Y002100D01*
X016830Y002010D02*
X016920Y002100D01*
X017010Y002010D01*
X016626Y001965D02*
X016535Y001965D01*
X016421Y001965D02*
X016376Y001920D01*
X016241Y001920D01*
X016331Y001920D02*
X016421Y001830D01*
X016421Y001965D02*
X016421Y002055D01*
X016376Y002100D01*
X016241Y002100D01*
X016241Y001830D01*
X016126Y001875D02*
X016126Y001920D01*
X016081Y001965D01*
X015946Y001965D01*
X015946Y001830D02*
X016081Y001830D01*
X016126Y001875D01*
X016081Y001965D02*
X016126Y002010D01*
X016126Y002055D01*
X016081Y002100D01*
X015946Y002100D01*
X015946Y001830D01*
X015537Y001830D02*
X015357Y001830D01*
X015537Y002010D01*
X015537Y002055D01*
X015492Y002100D01*
X015402Y002100D01*
X015357Y002055D01*
X015242Y002100D02*
X015242Y001875D01*
X015197Y001830D01*
X015107Y001830D01*
X015062Y001875D01*
X015062Y002100D01*
X014948Y002100D02*
X014858Y002055D01*
X014768Y001965D01*
X014903Y001965D01*
X014948Y001920D01*
X014948Y001875D01*
X014903Y001830D01*
X014813Y001830D01*
X014768Y001875D01*
X014768Y001965D01*
X014653Y001830D02*
X014473Y001830D01*
X014563Y001830D02*
X014563Y002100D01*
X014473Y002010D01*
X014358Y002010D02*
X014358Y001830D01*
X014358Y001965D02*
X014178Y001965D01*
X014178Y002010D02*
X014178Y001830D01*
X014064Y001875D02*
X014064Y001965D01*
X013974Y001965D01*
X014064Y001875D02*
X014019Y001830D01*
X013929Y001830D01*
X013884Y001875D01*
X013884Y002055D01*
X013929Y002100D01*
X014019Y002100D01*
X014064Y002055D01*
X014178Y002010D02*
X014268Y002100D01*
X014358Y002010D01*
X013769Y002100D02*
X013589Y002100D01*
X013589Y001830D01*
X013769Y001830D01*
X013679Y001965D02*
X013589Y001965D01*
X013474Y002100D02*
X013474Y001830D01*
X013294Y001830D02*
X013294Y002100D01*
X013384Y002010D01*
X013474Y002100D01*
X013180Y002100D02*
X013000Y002100D01*
X013090Y002100D02*
X013090Y001830D01*
X012885Y001830D02*
X012885Y002010D01*
X012795Y002100D01*
X012705Y002010D01*
X012705Y001830D01*
X012705Y001965D02*
X012885Y001965D01*
X012854Y001538D02*
X012718Y001538D01*
X012718Y001268D01*
X012718Y001358D02*
X012854Y001358D01*
X012899Y001403D01*
X012899Y001493D01*
X012854Y001538D01*
X013013Y001538D02*
X013013Y001268D01*
X013103Y001358D01*
X013193Y001268D01*
X013193Y001538D01*
X013308Y001538D02*
X013443Y001538D01*
X013488Y001493D01*
X013488Y001403D01*
X013443Y001358D01*
X013308Y001358D01*
X013398Y001358D02*
X013488Y001268D01*
X013308Y001268D02*
X013308Y001538D01*
X012899Y001163D02*
X012718Y000892D01*
X012751Y000788D02*
X012751Y000517D01*
X012571Y000788D01*
X012571Y000517D01*
X012457Y000517D02*
X012276Y000517D01*
X012276Y000788D01*
X012457Y000788D01*
X012424Y000892D02*
X012424Y001163D01*
X012559Y001163D01*
X012604Y001118D01*
X012604Y001028D01*
X012559Y000983D01*
X012424Y000983D01*
X012514Y000983D02*
X012604Y000892D01*
X012322Y000892D02*
X012276Y000892D01*
X012276Y000938D01*
X012322Y000938D01*
X012322Y000892D01*
X012322Y001028D02*
X012276Y001028D01*
X012276Y001073D01*
X012322Y001073D01*
X012322Y001028D01*
X012162Y000938D02*
X012162Y001118D01*
X012117Y001163D01*
X011982Y001163D01*
X011982Y000892D01*
X012117Y000892D01*
X012162Y000938D01*
X012162Y000788D02*
X011982Y000788D01*
X011982Y000517D01*
X012162Y000517D01*
X012072Y000653D02*
X011982Y000653D01*
X011867Y000653D02*
X011867Y000743D01*
X011822Y000788D01*
X011687Y000788D01*
X011687Y000517D01*
X011687Y000608D02*
X011822Y000608D01*
X011867Y000653D01*
X011777Y000608D02*
X011867Y000517D01*
X011573Y000563D02*
X011573Y000653D01*
X011483Y000653D01*
X011573Y000743D02*
X011528Y000788D01*
X011438Y000788D01*
X011392Y000743D01*
X011392Y000563D01*
X011438Y000517D01*
X011528Y000517D01*
X011573Y000563D01*
X011573Y000892D02*
X011483Y000983D01*
X011528Y000983D02*
X011393Y000983D01*
X011393Y000892D02*
X011393Y001163D01*
X011528Y001163D01*
X011573Y001118D01*
X011573Y001028D01*
X011528Y000983D01*
X011687Y001028D02*
X011777Y001028D01*
X011687Y001163D02*
X011687Y000892D01*
X011867Y000892D01*
X011867Y001163D02*
X011687Y001163D01*
X011687Y001268D02*
X011867Y001268D01*
X011982Y001313D02*
X012027Y001268D01*
X012117Y001268D01*
X012162Y001313D01*
X012162Y001538D01*
X012276Y001538D02*
X012276Y001268D01*
X012457Y001268D01*
X012571Y001268D02*
X012571Y001313D01*
X012616Y001313D01*
X012616Y001268D01*
X012571Y001268D01*
X012571Y001403D02*
X012571Y001448D01*
X012616Y001448D01*
X012616Y001403D01*
X012571Y001403D01*
X012457Y001538D02*
X012276Y001538D01*
X012276Y001403D02*
X012367Y001403D01*
X011982Y001313D02*
X011982Y001538D01*
X011687Y001538D02*
X011687Y001268D01*
X011573Y001313D02*
X011528Y001268D01*
X011393Y001268D01*
X011393Y001538D01*
X011528Y001538D01*
X011573Y001493D01*
X011573Y001448D01*
X011528Y001403D01*
X011393Y001403D01*
X011528Y001403D02*
X011573Y001358D01*
X011573Y001313D01*
X011088Y001476D02*
X011088Y001634D01*
X010458Y001634D02*
X010458Y001476D01*
X009991Y000993D02*
X009991Y000813D01*
X010036Y000768D01*
X009832Y000768D02*
X009697Y000768D01*
X009651Y000813D01*
X009651Y000903D01*
X009697Y000948D01*
X009832Y000948D01*
X009946Y000948D02*
X010036Y000948D01*
X009537Y000903D02*
X009537Y000858D01*
X009357Y000858D01*
X009357Y000813D02*
X009357Y000903D01*
X009402Y000948D01*
X009492Y000948D01*
X009537Y000903D01*
X009402Y000768D02*
X009357Y000813D01*
X009402Y000768D02*
X009492Y000768D01*
X009250Y000768D02*
X009160Y000768D01*
X009205Y000768D02*
X009205Y001038D01*
X009160Y001038D01*
X009046Y000903D02*
X009046Y000858D01*
X008866Y000858D01*
X008866Y000813D02*
X008866Y000903D01*
X008911Y000948D01*
X009001Y000948D01*
X009046Y000903D01*
X008911Y000768D02*
X008866Y000813D01*
X008911Y000768D02*
X009001Y000768D01*
X008751Y000813D02*
X008706Y000768D01*
X008616Y000768D01*
X008571Y000813D01*
X008616Y000903D02*
X008706Y000903D01*
X008751Y000858D01*
X008751Y000813D01*
X008616Y000903D02*
X008571Y000948D01*
X008571Y000993D01*
X008616Y001038D01*
X008706Y001038D01*
X008751Y000993D01*
X008162Y000993D02*
X008162Y000813D01*
X008117Y000768D01*
X007982Y000768D01*
X007982Y001038D01*
X008117Y001038D01*
X008162Y000993D01*
X007867Y000993D02*
X007867Y000813D01*
X007822Y000768D01*
X007687Y000768D01*
X007687Y001038D01*
X007822Y001038D01*
X007867Y000993D01*
X007573Y001038D02*
X007573Y000858D01*
X007483Y000768D01*
X007393Y000858D01*
X007393Y001038D01*
X007563Y002268D02*
X007518Y002313D01*
X007563Y002268D02*
X007653Y002268D01*
X007698Y002313D01*
X007698Y002358D01*
X007653Y002403D01*
X007608Y002403D01*
X007653Y002403D02*
X007698Y002448D01*
X007698Y002493D01*
X007653Y002538D01*
X007563Y002538D01*
X007518Y002493D01*
X007812Y002313D02*
X007857Y002313D01*
X007857Y002268D01*
X007812Y002268D01*
X007812Y002313D01*
X007959Y002313D02*
X008005Y002268D01*
X008095Y002268D01*
X008140Y002313D01*
X008140Y002358D01*
X008095Y002403D01*
X008050Y002403D01*
X008095Y002403D02*
X008140Y002448D01*
X008140Y002493D01*
X008095Y002538D01*
X008005Y002538D01*
X007959Y002493D01*
X008254Y002538D02*
X008254Y002358D01*
X008344Y002268D01*
X008434Y002358D01*
X008434Y002538D01*
X008955Y002538D02*
X008955Y002403D01*
X009045Y002448D01*
X009090Y002448D01*
X009135Y002403D01*
X009135Y002313D01*
X009090Y002268D01*
X009000Y002268D01*
X008955Y002313D01*
X008955Y002538D02*
X009135Y002538D01*
X009250Y002538D02*
X009250Y002358D01*
X009340Y002268D01*
X009430Y002358D01*
X009430Y002538D01*
X012276Y000653D02*
X012367Y000653D01*
X012866Y000653D02*
X012866Y000698D01*
X012911Y000698D01*
X012911Y000653D01*
X012866Y000653D01*
X012866Y000563D02*
X012866Y000517D01*
X012911Y000517D01*
X012911Y000563D01*
X012866Y000563D01*
X013103Y000517D02*
X013103Y000788D01*
X013013Y000788D02*
X013193Y000788D01*
X013308Y000788D02*
X013488Y000517D01*
X013308Y000517D02*
X013488Y000788D01*
X012899Y000892D02*
X012718Y001163D01*
X014705Y003518D02*
X014840Y003518D01*
X014885Y003563D01*
X014885Y003743D01*
X014840Y003788D01*
X014705Y003788D01*
X014705Y003518D01*
X015000Y003518D02*
X015000Y003788D01*
X015180Y003788D01*
X015294Y003788D02*
X015294Y003563D01*
X015339Y003518D01*
X015429Y003518D01*
X015474Y003563D01*
X015474Y003788D01*
X015090Y003653D02*
X015000Y003653D01*
X014247Y004580D02*
X014080Y004580D01*
X014163Y004580D02*
X014163Y004830D01*
X014080Y004747D01*
X015155Y004986D02*
X015238Y005070D01*
X015155Y005153D01*
X015405Y005153D01*
X015405Y005263D02*
X015405Y005346D01*
X015405Y005304D02*
X015155Y005304D01*
X015155Y005263D02*
X015155Y005346D01*
X015196Y005447D02*
X015238Y005447D01*
X015280Y005488D01*
X015280Y005572D01*
X015322Y005613D01*
X015363Y005613D01*
X015405Y005572D01*
X015405Y005488D01*
X015363Y005447D01*
X015196Y005447D02*
X015155Y005488D01*
X015155Y005572D01*
X015196Y005613D01*
X015196Y005723D02*
X015363Y005723D01*
X015405Y005765D01*
X015405Y005848D01*
X015363Y005890D01*
X015196Y005890D01*
X015155Y005848D01*
X015155Y005765D01*
X015196Y005723D01*
X015196Y006143D02*
X015238Y006143D01*
X015280Y006184D01*
X015280Y006268D01*
X015322Y006309D01*
X015363Y006309D01*
X015405Y006268D01*
X015405Y006184D01*
X015363Y006143D01*
X015196Y006143D02*
X015155Y006184D01*
X015155Y006268D01*
X015196Y006309D01*
X015196Y006419D02*
X015363Y006419D01*
X015405Y006460D01*
X015405Y006544D01*
X015363Y006586D01*
X015322Y006695D02*
X015155Y006862D01*
X015155Y006695D02*
X015405Y006695D01*
X015280Y006737D02*
X015405Y006862D01*
X015196Y006586D02*
X015155Y006544D01*
X015155Y006460D01*
X015196Y006419D01*
X015055Y007086D02*
X015055Y007915D01*
X015155Y007831D02*
X015155Y007664D01*
X015155Y007747D02*
X015405Y007747D01*
X015363Y007554D02*
X015405Y007513D01*
X015405Y007429D01*
X015363Y007388D01*
X015280Y007429D02*
X015280Y007513D01*
X015322Y007554D01*
X015363Y007554D01*
X015280Y007429D02*
X015238Y007388D01*
X015196Y007388D01*
X015155Y007429D01*
X015155Y007513D01*
X015196Y007554D01*
X015196Y007278D02*
X015280Y007278D01*
X015322Y007236D01*
X015322Y007111D01*
X015405Y007111D02*
X015155Y007111D01*
X015155Y007236D01*
X015196Y007278D01*
X015322Y007195D02*
X015405Y007278D01*
X012780Y007236D02*
X012780Y007153D01*
X012738Y007111D01*
X012572Y007111D01*
X012530Y007153D01*
X012530Y007236D01*
X012572Y007278D01*
X012655Y007278D02*
X012655Y007195D01*
X012655Y007278D02*
X012738Y007278D01*
X012780Y007236D01*
X012780Y007387D02*
X012530Y007387D01*
X012780Y007554D01*
X012530Y007554D01*
X012530Y007664D02*
X012530Y007789D01*
X012572Y007831D01*
X012738Y007831D01*
X012780Y007789D01*
X012780Y007664D01*
X012530Y007664D01*
X012530Y006867D02*
X012530Y006784D01*
X012530Y006825D02*
X012780Y006825D01*
X012780Y006784D02*
X012780Y006867D01*
X012738Y006674D02*
X012780Y006633D01*
X012780Y006549D01*
X012738Y006507D01*
X012655Y006549D02*
X012655Y006633D01*
X012697Y006674D01*
X012738Y006674D01*
X012571Y006674D02*
X012530Y006633D01*
X012530Y006549D01*
X012571Y006507D01*
X012613Y006507D01*
X012655Y006549D01*
X012738Y006398D02*
X012571Y006398D01*
X012530Y006356D01*
X012530Y006273D01*
X012571Y006231D01*
X012738Y006231D01*
X012780Y006273D01*
X012780Y006356D01*
X012738Y006398D01*
X012780Y006122D02*
X012530Y006122D01*
X012613Y006038D01*
X012530Y005955D01*
X012780Y005955D01*
X012738Y005706D02*
X012571Y005706D01*
X012530Y005664D01*
X012530Y005539D01*
X012780Y005539D01*
X012780Y005664D01*
X012738Y005706D01*
X012738Y005429D02*
X012571Y005429D01*
X012530Y005388D01*
X012530Y005262D01*
X012780Y005262D01*
X012780Y005388D01*
X012738Y005429D01*
X012697Y005153D02*
X012530Y005153D01*
X012697Y005153D02*
X012780Y005070D01*
X012697Y004986D01*
X012530Y004986D01*
X015155Y004986D02*
X015405Y004986D01*
X015375Y010267D02*
X015510Y010267D01*
X015555Y010313D01*
X015555Y010493D01*
X015510Y010538D01*
X015375Y010538D01*
X015375Y010267D01*
X015260Y010403D02*
X015215Y010358D01*
X015080Y010358D01*
X015080Y010267D02*
X015080Y010538D01*
X015215Y010538D01*
X015260Y010493D01*
X015260Y010403D01*
X014849Y010358D02*
X014849Y010313D01*
X014804Y010267D01*
X014714Y010267D01*
X014669Y010313D01*
X014669Y010403D01*
X014804Y010403D01*
X014849Y010358D01*
X014759Y010493D02*
X014669Y010403D01*
X014759Y010493D02*
X014849Y010538D01*
X014555Y010493D02*
X014510Y010538D01*
X014375Y010538D01*
X014375Y010267D01*
X014510Y010267D01*
X014555Y010313D01*
X014555Y010493D01*
X014260Y010493D02*
X014260Y010403D01*
X014215Y010358D01*
X014080Y010358D01*
X014080Y010267D02*
X014080Y010538D01*
X014215Y010538D01*
X014260Y010493D01*
X013849Y010493D02*
X013849Y010313D01*
X013804Y010267D01*
X013714Y010267D01*
X013669Y010313D01*
X013849Y010493D01*
X013804Y010538D01*
X013714Y010538D01*
X013669Y010493D01*
X013669Y010313D01*
X013555Y010313D02*
X013555Y010358D01*
X013510Y010403D01*
X013375Y010403D01*
X013260Y010403D02*
X013215Y010358D01*
X013080Y010358D01*
X013080Y010267D02*
X013080Y010538D01*
X013215Y010538D01*
X013260Y010493D01*
X013260Y010403D01*
X013375Y010538D02*
X013375Y010267D01*
X013510Y010267D01*
X013555Y010313D01*
X013510Y010403D02*
X013555Y010448D01*
X013555Y010493D01*
X013510Y010538D01*
X013375Y010538D01*
X012849Y010403D02*
X012669Y010403D01*
X012804Y010538D01*
X012804Y010267D01*
X012555Y010313D02*
X012555Y010358D01*
X012510Y010403D01*
X012375Y010403D01*
X012260Y010403D02*
X012215Y010358D01*
X012080Y010358D01*
X012080Y010267D02*
X012080Y010538D01*
X012215Y010538D01*
X012260Y010493D01*
X012260Y010403D01*
X012375Y010538D02*
X012375Y010267D01*
X012510Y010267D01*
X012555Y010313D01*
X012510Y010403D02*
X012555Y010448D01*
X012555Y010493D01*
X012510Y010538D01*
X012375Y010538D01*
X011849Y010538D02*
X011669Y010538D01*
X011669Y010403D01*
X011759Y010448D01*
X011804Y010448D01*
X011849Y010403D01*
X011849Y010313D01*
X011804Y010267D01*
X011714Y010267D01*
X011669Y010313D01*
X011555Y010313D02*
X011510Y010267D01*
X011375Y010267D01*
X011375Y010538D01*
X011510Y010538D01*
X011555Y010493D01*
X011555Y010448D01*
X011510Y010403D01*
X011375Y010403D01*
X011260Y010403D02*
X011260Y010493D01*
X011215Y010538D01*
X011080Y010538D01*
X011080Y010267D01*
X011080Y010358D02*
X011215Y010358D01*
X011260Y010403D01*
X011510Y010403D02*
X011555Y010358D01*
X011555Y010313D01*
X010849Y010313D02*
X010849Y010358D01*
X010804Y010403D01*
X010669Y010403D01*
X010669Y010313D01*
X010714Y010268D01*
X010804Y010268D01*
X010849Y010313D01*
X010759Y010493D02*
X010669Y010403D01*
X010555Y010448D02*
X010510Y010403D01*
X010375Y010403D01*
X010260Y010403D02*
X010260Y010493D01*
X010215Y010538D01*
X010080Y010538D01*
X010080Y010268D01*
X010080Y010358D02*
X010215Y010358D01*
X010260Y010403D01*
X010375Y010268D02*
X010375Y010538D01*
X010510Y010538D01*
X010555Y010493D01*
X010555Y010448D01*
X010510Y010403D02*
X010555Y010358D01*
X010555Y010313D01*
X010510Y010268D01*
X010375Y010268D01*
X010759Y010493D02*
X010849Y010538D01*
X009849Y010538D02*
X009849Y010493D01*
X009669Y010313D01*
X009669Y010267D01*
X009555Y010313D02*
X009555Y010358D01*
X009510Y010403D01*
X009375Y010403D01*
X009260Y010403D02*
X009215Y010358D01*
X009080Y010358D01*
X009080Y010267D02*
X009080Y010538D01*
X009215Y010538D01*
X009260Y010493D01*
X009260Y010403D01*
X009375Y010538D02*
X009375Y010267D01*
X009510Y010267D01*
X009555Y010313D01*
X009510Y010403D02*
X009555Y010448D01*
X009555Y010493D01*
X009510Y010538D01*
X009375Y010538D01*
X009669Y010538D02*
X009849Y010538D01*
X008849Y010538D02*
X008849Y010493D01*
X008669Y010313D01*
X008669Y010267D01*
X008555Y010313D02*
X008510Y010267D01*
X008420Y010267D01*
X008375Y010313D01*
X008375Y010493D01*
X008420Y010538D01*
X008510Y010538D01*
X008555Y010493D01*
X008669Y010538D02*
X008849Y010538D01*
X008260Y010493D02*
X008260Y010403D01*
X008215Y010358D01*
X008080Y010358D01*
X008080Y010267D02*
X008080Y010538D01*
X008215Y010538D01*
X008260Y010493D01*
X007849Y010538D02*
X007759Y010493D01*
X007669Y010403D01*
X007804Y010403D01*
X007849Y010358D01*
X007849Y010313D01*
X007804Y010267D01*
X007714Y010267D01*
X007669Y010313D01*
X007669Y010403D01*
X007555Y010493D02*
X007510Y010538D01*
X007420Y010538D01*
X007375Y010493D01*
X007375Y010313D01*
X007420Y010267D01*
X007510Y010267D01*
X007555Y010313D01*
X007260Y010403D02*
X007260Y010493D01*
X007215Y010538D01*
X007080Y010538D01*
X007080Y010267D01*
X007080Y010358D02*
X007215Y010358D01*
X007260Y010403D01*
X006787Y010403D02*
X006787Y010313D01*
X006742Y010268D01*
X006652Y010268D01*
X006607Y010313D01*
X006607Y010403D02*
X006697Y010448D01*
X006742Y010448D01*
X006787Y010403D01*
X006787Y010538D02*
X006607Y010538D01*
X006607Y010403D01*
X006492Y010493D02*
X006447Y010538D01*
X006357Y010538D01*
X006312Y010493D01*
X006312Y010313D01*
X006357Y010268D01*
X006447Y010268D01*
X006492Y010313D01*
X006198Y010403D02*
X006198Y010493D01*
X006153Y010538D01*
X006017Y010538D01*
X006017Y010268D01*
X006017Y010358D02*
X006153Y010358D01*
X006198Y010403D01*
X005849Y010403D02*
X005669Y010403D01*
X005804Y010538D01*
X005804Y010268D01*
X005555Y010313D02*
X005510Y010268D01*
X005420Y010268D01*
X005375Y010313D01*
X005375Y010493D01*
X005420Y010538D01*
X005510Y010538D01*
X005555Y010493D01*
X005260Y010493D02*
X005260Y010403D01*
X005215Y010358D01*
X005080Y010358D01*
X005080Y010268D02*
X005080Y010538D01*
X005215Y010538D01*
X005260Y010493D01*
X005469Y007694D02*
X005424Y007649D01*
X005424Y007469D01*
X005469Y007424D01*
X005559Y007424D01*
X005604Y007469D01*
X005604Y007559D01*
X005514Y007559D01*
X005604Y007649D02*
X005559Y007694D01*
X005469Y007694D01*
X005718Y007694D02*
X005899Y007424D01*
X005899Y007694D01*
X006013Y007694D02*
X006148Y007694D01*
X006193Y007649D01*
X006193Y007469D01*
X006148Y007424D01*
X006013Y007424D01*
X006013Y007694D01*
X005718Y007694D02*
X005718Y007424D01*
X015669Y010267D02*
X015849Y010267D01*
X015759Y010267D02*
X015759Y010538D01*
X015669Y010448D01*
X016080Y010538D02*
X016080Y010267D01*
X016080Y010358D02*
X016215Y010358D01*
X016260Y010403D01*
X016260Y010493D01*
X016215Y010538D01*
X016080Y010538D01*
X016375Y010538D02*
X016510Y010538D01*
X016555Y010493D01*
X016555Y010313D01*
X016510Y010267D01*
X016375Y010267D01*
X016375Y010538D01*
X016669Y010493D02*
X016669Y010313D01*
X016849Y010493D01*
X016849Y010313D01*
X016804Y010267D01*
X016714Y010267D01*
X016669Y010313D01*
X016669Y010493D02*
X016714Y010538D01*
X016804Y010538D01*
X016849Y010493D01*
X017018Y010538D02*
X017153Y010538D01*
X017198Y010493D01*
X017198Y010403D01*
X017153Y010358D01*
X017018Y010358D01*
X017018Y010267D02*
X017018Y010538D01*
X017312Y010493D02*
X017312Y010313D01*
X017357Y010267D01*
X017447Y010267D01*
X017492Y010313D01*
X017607Y010267D02*
X017787Y010448D01*
X017787Y010493D01*
X017742Y010538D01*
X017652Y010538D01*
X017607Y010493D01*
X017492Y010493D02*
X017447Y010538D01*
X017357Y010538D01*
X017312Y010493D01*
X017607Y010267D02*
X017787Y010267D01*
D13*
X016742Y008238D02*
X016628Y008238D01*
X016572Y008181D01*
X016572Y008124D01*
X016628Y008068D01*
X016742Y008068D01*
X016798Y008011D01*
X016798Y007954D01*
X016742Y007898D01*
X016628Y007898D01*
X016572Y007954D01*
X016317Y007898D02*
X016317Y008238D01*
X016430Y008238D02*
X016203Y008238D01*
X016062Y008181D02*
X016005Y008238D01*
X015892Y008238D01*
X015835Y008181D01*
X015835Y007954D01*
X015892Y007898D01*
X016005Y007898D01*
X016062Y007954D01*
X016742Y008238D02*
X016798Y008181D01*
X016742Y007238D02*
X016572Y007238D01*
X016572Y006898D01*
X016742Y006898D01*
X016798Y006954D01*
X016798Y007181D01*
X016742Y007238D01*
X016430Y007238D02*
X016203Y006898D01*
X016062Y006898D02*
X015948Y007011D01*
X016005Y007011D02*
X015835Y007011D01*
X015835Y006898D02*
X015835Y007238D01*
X016005Y007238D01*
X016062Y007181D01*
X016062Y007068D01*
X016005Y007011D01*
X016203Y007238D02*
X016430Y006898D01*
X016430Y006238D02*
X016203Y005897D01*
X015948Y005897D02*
X015948Y006238D01*
X015835Y006238D02*
X016062Y006238D01*
X016203Y006238D02*
X016430Y005897D01*
X016572Y005897D02*
X016742Y005897D01*
X016798Y005954D01*
X016798Y006181D01*
X016742Y006238D01*
X016572Y006238D01*
X016572Y005897D01*
X016572Y005238D02*
X016742Y005238D01*
X016798Y005181D01*
X016798Y004954D01*
X016742Y004898D01*
X016572Y004898D01*
X016572Y005238D01*
X016430Y005181D02*
X016373Y005238D01*
X016203Y005238D01*
X016203Y004898D01*
X016373Y004898D01*
X016430Y004954D01*
X016430Y005181D01*
X016062Y005238D02*
X016062Y005011D01*
X015948Y004898D01*
X015835Y005011D01*
X015835Y005238D01*
X014930Y005180D02*
X014930Y005680D01*
X014680Y005930D01*
X014930Y006180D01*
X014930Y006680D01*
X014680Y006930D01*
X014930Y007180D01*
X014930Y007680D01*
X014680Y007930D01*
X013180Y007930D01*
X012930Y007680D01*
X012930Y007180D01*
X013180Y006930D01*
X012930Y006680D01*
X012930Y006180D01*
X013180Y005930D01*
X012930Y005680D01*
X012930Y005180D01*
X013180Y004930D01*
X014680Y004930D01*
X014930Y005180D01*
X014505Y004705D02*
X015605Y004705D01*
X015622Y004703D01*
X015639Y004699D01*
X015655Y004692D01*
X015669Y004682D01*
X015682Y004669D01*
X015692Y004655D01*
X015699Y004639D01*
X015703Y004622D01*
X015705Y004605D01*
X015705Y004005D01*
X015703Y003988D01*
X015699Y003971D01*
X015692Y003955D01*
X015682Y003941D01*
X015669Y003928D01*
X015655Y003918D01*
X015639Y003911D01*
X015622Y003907D01*
X015605Y003905D01*
X014505Y003905D01*
X014488Y003907D01*
X014471Y003911D01*
X014455Y003918D01*
X014441Y003928D01*
X014428Y003941D01*
X014418Y003955D01*
X014411Y003971D01*
X014407Y003988D01*
X014405Y004005D01*
X014405Y004605D01*
X014407Y004622D01*
X014411Y004639D01*
X014418Y004655D01*
X014428Y004669D01*
X014441Y004682D01*
X014455Y004692D01*
X014471Y004699D01*
X014488Y004703D01*
X014505Y004705D01*
X016210Y004238D02*
X016210Y003898D01*
X016437Y003898D02*
X016437Y004238D01*
X016578Y004181D02*
X016578Y003954D01*
X016635Y003898D01*
X016748Y003898D01*
X016805Y003954D01*
X016805Y004181D02*
X016748Y004238D01*
X016635Y004238D01*
X016578Y004181D01*
X016437Y003898D02*
X016210Y004238D01*
X016203Y003238D02*
X016430Y002898D01*
X016430Y003238D01*
X016572Y003238D02*
X016742Y003238D01*
X016798Y003181D01*
X016798Y002954D01*
X016742Y002898D01*
X016572Y002898D01*
X016572Y003238D01*
X016203Y003238D02*
X016203Y002898D01*
X016062Y002954D02*
X016062Y003068D01*
X015948Y003068D01*
X015835Y003181D02*
X015835Y002954D01*
X015892Y002898D01*
X016005Y002898D01*
X016062Y002954D01*
X016062Y003181D02*
X016005Y003238D01*
X015892Y003238D01*
X015835Y003181D01*
X006455Y007880D02*
X006455Y008480D01*
X006453Y008497D01*
X006449Y008514D01*
X006442Y008530D01*
X006432Y008544D01*
X006419Y008557D01*
X006405Y008567D01*
X006389Y008574D01*
X006372Y008578D01*
X006355Y008580D01*
X005255Y008580D01*
X005238Y008578D01*
X005221Y008574D01*
X005205Y008567D01*
X005191Y008557D01*
X005178Y008544D01*
X005168Y008530D01*
X005161Y008514D01*
X005157Y008497D01*
X005155Y008480D01*
X005155Y007880D01*
X005157Y007863D01*
X005161Y007846D01*
X005168Y007830D01*
X005178Y007816D01*
X005191Y007803D01*
X005205Y007793D01*
X005221Y007786D01*
X005238Y007782D01*
X005255Y007780D01*
X006355Y007780D01*
X006372Y007782D01*
X006389Y007786D01*
X006405Y007793D01*
X006419Y007803D01*
X006432Y007816D01*
X006442Y007830D01*
X006449Y007846D01*
X006453Y007863D01*
X006455Y007880D01*
X005860Y003104D02*
X005700Y003104D01*
X005700Y002631D02*
X005860Y002631D01*
D14*
X002230Y003095D02*
X002230Y000515D01*
X003630Y000515D01*
X003630Y003095D01*
X002230Y003095D01*
X002418Y004059D02*
X003245Y004059D01*
X004229Y004335D02*
X004229Y004689D01*
X005266Y005379D02*
X005581Y005379D01*
X005581Y005615D01*
X006080Y005330D02*
X008780Y005330D01*
X008839Y005328D01*
X008897Y005322D01*
X008956Y005313D01*
X009013Y005299D01*
X009069Y005282D01*
X009124Y005261D01*
X009178Y005237D01*
X009230Y005209D01*
X009280Y005178D01*
X009328Y005144D01*
X009373Y005107D01*
X009416Y005066D01*
X009457Y005023D01*
X009494Y004978D01*
X009528Y004930D01*
X009559Y004880D01*
X009587Y004828D01*
X009611Y004774D01*
X009632Y004719D01*
X009649Y004663D01*
X009663Y004606D01*
X009672Y004547D01*
X009678Y004489D01*
X009680Y004430D01*
X009678Y004371D01*
X009672Y004313D01*
X009663Y004254D01*
X009649Y004197D01*
X009632Y004141D01*
X009611Y004086D01*
X009587Y004032D01*
X009559Y003980D01*
X009528Y003930D01*
X009494Y003882D01*
X009457Y003837D01*
X009416Y003794D01*
X009373Y003753D01*
X009328Y003716D01*
X009280Y003682D01*
X009230Y003651D01*
X009178Y003623D01*
X009124Y003599D01*
X009069Y003578D01*
X009013Y003561D01*
X008956Y003547D01*
X008897Y003538D01*
X008839Y003532D01*
X008780Y003530D01*
X006080Y003530D01*
X006021Y003532D01*
X005963Y003538D01*
X005904Y003547D01*
X005847Y003561D01*
X005791Y003578D01*
X005736Y003599D01*
X005682Y003623D01*
X005630Y003651D01*
X005580Y003682D01*
X005532Y003716D01*
X005487Y003753D01*
X005444Y003794D01*
X005403Y003837D01*
X005366Y003882D01*
X005332Y003930D01*
X005301Y003980D01*
X005273Y004032D01*
X005249Y004086D01*
X005228Y004141D01*
X005211Y004197D01*
X005197Y004254D01*
X005188Y004313D01*
X005182Y004371D01*
X005180Y004430D01*
X005182Y004489D01*
X005188Y004547D01*
X005197Y004606D01*
X005211Y004663D01*
X005228Y004719D01*
X005249Y004774D01*
X005273Y004828D01*
X005301Y004880D01*
X005332Y004930D01*
X005366Y004978D01*
X005403Y005023D01*
X005444Y005066D01*
X005487Y005107D01*
X005532Y005144D01*
X005580Y005178D01*
X005630Y005209D01*
X005682Y005237D01*
X005736Y005261D01*
X005791Y005282D01*
X005847Y005299D01*
X005904Y005313D01*
X005963Y005322D01*
X006021Y005328D01*
X006080Y005330D01*
X005581Y006245D02*
X005581Y006481D01*
X005266Y006481D01*
X004229Y006421D02*
X004229Y006775D01*
X003245Y007051D02*
X002418Y007051D01*
X004930Y009430D02*
X005180Y009180D01*
X005680Y009180D01*
X005930Y009430D01*
X006180Y009180D01*
X006680Y009180D01*
X006930Y009430D01*
X007180Y009180D01*
X007680Y009180D01*
X007930Y009430D01*
X008180Y009180D01*
X008680Y009180D01*
X008930Y009430D01*
X009180Y009180D01*
X009680Y009180D01*
X009930Y009430D01*
X010180Y009180D01*
X010680Y009180D01*
X010930Y009430D01*
X011180Y009180D01*
X011680Y009180D01*
X011930Y009430D01*
X012180Y009180D01*
X012680Y009180D01*
X012930Y009430D01*
X013180Y009180D01*
X013680Y009180D01*
X013930Y009430D01*
X014180Y009180D01*
X014680Y009180D01*
X014930Y009430D01*
X014930Y009930D01*
X015180Y010180D01*
X015680Y010180D01*
X015930Y009930D01*
X016180Y010180D01*
X016680Y010180D01*
X016930Y009930D01*
X017180Y010180D01*
X017680Y010180D01*
X017930Y009930D01*
X017930Y009430D01*
X017680Y009180D01*
X017180Y009180D01*
X016930Y009430D01*
X016680Y009180D01*
X016180Y009180D01*
X015930Y009430D01*
X015680Y009180D01*
X015180Y009180D01*
X014930Y009430D01*
X014930Y009930D01*
X014680Y010180D01*
X014180Y010180D01*
X013930Y009930D01*
X013680Y010180D01*
X013180Y010180D01*
X012930Y009930D01*
X012930Y009430D01*
X012930Y009930D01*
X012680Y010180D01*
X012180Y010180D01*
X011930Y009930D01*
X011680Y010180D01*
X011180Y010180D01*
X010930Y009930D01*
X010680Y010180D01*
X010180Y010180D01*
X009930Y009930D01*
X009680Y010180D01*
X009180Y010180D01*
X008930Y009930D01*
X008680Y010180D01*
X008180Y010180D01*
X007930Y009930D01*
X007680Y010180D01*
X007180Y010180D01*
X006930Y009930D01*
X006680Y010180D01*
X006180Y010180D01*
X005930Y009930D01*
X005680Y010180D01*
X005180Y010180D01*
X004930Y009930D01*
X004930Y009430D01*
X007368Y002368D02*
X007430Y002368D01*
X007368Y002368D02*
X007180Y002180D01*
X007430Y002180D02*
X007180Y001930D01*
X007180Y001430D01*
X007430Y001180D01*
X007930Y001180D01*
X008180Y001430D01*
X008430Y001180D01*
X008930Y001180D01*
X009180Y001430D01*
X009430Y001180D01*
X009930Y001180D01*
X010180Y001430D01*
X010180Y001930D01*
X009930Y002180D01*
X009430Y002180D01*
X009180Y001930D01*
X008930Y002180D01*
X008430Y002180D01*
X008180Y001930D01*
X007930Y002180D01*
X007430Y002180D01*
X008555Y002368D02*
X008680Y002368D01*
X008805Y002368D01*
X008680Y002368D02*
X008680Y002305D01*
X009555Y002368D02*
X009993Y002368D01*
X010180Y002180D01*
X013960Y001255D02*
X014083Y001255D01*
X014022Y001379D02*
X014083Y001440D01*
X014022Y001379D02*
X014022Y001070D01*
X014236Y001070D02*
X014236Y001317D01*
X014236Y001193D02*
X014360Y001317D01*
X014421Y001317D01*
X014582Y001255D02*
X014582Y001132D01*
X014643Y001070D01*
X014767Y001070D01*
X014828Y001193D02*
X014582Y001193D01*
X014582Y001255D02*
X014643Y001317D01*
X014767Y001317D01*
X014828Y001255D01*
X014828Y001193D01*
X014996Y001193D02*
X015243Y001193D01*
X015243Y001255D01*
X015181Y001317D01*
X015058Y001317D01*
X014996Y001255D01*
X014996Y001132D01*
X015058Y001070D01*
X015181Y001070D01*
X015472Y001132D02*
X015534Y001070D01*
X015472Y001132D02*
X015472Y001379D01*
X015410Y001317D02*
X015534Y001317D01*
X015686Y001317D02*
X015686Y001070D01*
X015686Y001193D02*
X015810Y001317D01*
X015872Y001317D01*
X016032Y001255D02*
X016032Y001132D01*
X016093Y001070D01*
X016217Y001070D01*
X016279Y001132D01*
X016279Y001255D01*
X016217Y001317D01*
X016093Y001317D01*
X016032Y001255D01*
X016446Y001317D02*
X016446Y001070D01*
X016693Y001070D02*
X016693Y001255D01*
X016631Y001317D01*
X016446Y001317D01*
X016860Y001317D02*
X016922Y001317D01*
X016922Y001070D01*
X016860Y001070D02*
X016984Y001070D01*
X017137Y001132D02*
X017198Y001070D01*
X017384Y001070D01*
X017551Y001070D02*
X017736Y001070D01*
X017798Y001132D01*
X017736Y001193D01*
X017613Y001193D01*
X017551Y001255D01*
X017613Y001317D01*
X017798Y001317D01*
X017384Y001317D02*
X017198Y001317D01*
X017137Y001255D01*
X017137Y001132D01*
X016922Y001440D02*
X016922Y001502D01*
X017180Y002555D02*
X016930Y002805D01*
X016930Y003305D01*
X017180Y003555D01*
X016930Y003805D01*
X016930Y004305D01*
X017180Y004555D01*
X016930Y004805D01*
X016930Y005305D01*
X017180Y005555D01*
X016930Y005805D01*
X016930Y006305D01*
X017180Y006555D01*
X016930Y006805D01*
X016930Y007305D01*
X017180Y007555D01*
X016930Y007805D01*
X016930Y008305D01*
X017180Y008555D01*
X017680Y008555D01*
X017930Y008305D01*
X017930Y007805D01*
X017680Y007555D01*
X017930Y007305D01*
X017930Y006805D01*
X017680Y006555D01*
X017930Y006305D01*
X017930Y005805D01*
X017680Y005555D01*
X017930Y005305D01*
X017930Y004805D01*
X017680Y004555D01*
X017930Y004305D01*
X017930Y003805D01*
X017680Y003555D01*
X017930Y003305D01*
X017930Y002805D01*
X017680Y002555D01*
X017180Y002555D01*
D15*
X012095Y005815D02*
X011937Y005815D01*
X012095Y005815D02*
X012095Y005973D01*
X010323Y005815D02*
X010165Y005815D01*
X010165Y005973D01*
X010165Y007587D02*
X010165Y007745D01*
X010323Y007745D01*
X011937Y007745D02*
X012095Y007745D01*
X012095Y007587D01*
D16*
X010274Y005924D03*
D17*
X011246Y001831D02*
X011248Y001842D01*
X011253Y001851D01*
X011261Y001858D01*
X011272Y001862D01*
X011282Y001862D01*
X011292Y001858D01*
X011301Y001851D01*
X011306Y001842D01*
X011308Y001831D01*
X011306Y001820D01*
X011301Y001811D01*
X011293Y001804D01*
X011282Y001800D01*
X011272Y001800D01*
X011261Y001804D01*
X011253Y001811D01*
X011248Y001820D01*
X011246Y001831D01*
M02*
