G75*
G70*
%OFA0B0*%
%FSLAX24Y24*%
%IPPOS*%
%LPD*%
%AMOC8*
5,1,8,0,0,1.08239X$1,22.5*
%
%ADD10R,0.0513X0.0474*%
%ADD11C,0.0197*%
%ADD12C,0.0040*%
%ADD13R,0.0580X0.0580*%
%ADD14R,0.0434X0.0395*%
%ADD15R,0.0828X0.1419*%
%ADD16R,0.1064X0.0277*%
%ADD17R,0.1064X0.0867*%
%ADD18C,0.0434*%
%ADD19C,0.0600*%
%ADD20R,0.0540X0.0710*%
%ADD21R,0.0060X0.0720*%
%ADD22R,0.0680X0.0680*%
%ADD23C,0.0680*%
%ADD24R,0.0277X0.0316*%
%ADD25R,0.0316X0.0316*%
%ADD26R,0.0277X0.0336*%
%ADD27R,0.0960X0.0560*%
%ADD28R,0.0946X0.1497*%
%ADD29C,0.0840*%
%ADD30R,0.0592X0.0671*%
%ADD31C,0.0740*%
D10*
X007847Y002933D03*
X008516Y002933D03*
X009222Y002933D03*
X009891Y002933D03*
X010347Y004433D03*
X011016Y004433D03*
X008766Y005758D03*
X008097Y005758D03*
X007066Y005758D03*
X006397Y005758D03*
X006397Y006683D03*
X007066Y006683D03*
X008097Y006683D03*
X008766Y006683D03*
X008878Y007783D03*
X009547Y007783D03*
X008266Y007783D03*
X007597Y007783D03*
X015847Y008708D03*
X016516Y008708D03*
D11*
X011653Y007305D02*
X011653Y006262D01*
X010669Y006262D01*
X010610Y006321D01*
X010610Y007305D01*
X011653Y007305D01*
X011653Y007272D02*
X010610Y007272D01*
X010610Y007077D02*
X011653Y007077D01*
X011653Y006881D02*
X010610Y006881D01*
X010610Y006686D02*
X011653Y006686D01*
X011653Y006491D02*
X010610Y006491D01*
X010635Y006295D02*
X011653Y006295D01*
D12*
X011939Y006292D02*
X012135Y006292D01*
X012135Y006331D02*
X011939Y006331D01*
X012135Y006331D01*
X012135Y006252D01*
X011939Y006252D01*
X011939Y006331D01*
X011939Y006253D02*
X012135Y006253D01*
X012135Y006134D02*
X011939Y006134D01*
X011939Y006075D01*
X011958Y006055D01*
X012135Y006055D01*
X012135Y006134D01*
X012135Y006099D02*
X011939Y006099D01*
X011953Y006061D02*
X012135Y006061D01*
X011860Y005957D02*
X011860Y005779D01*
X011781Y005779D01*
X011781Y005976D01*
X011840Y005976D01*
X011860Y005957D01*
X011860Y005945D02*
X011781Y005945D01*
X011781Y005907D02*
X011860Y005907D01*
X011860Y005868D02*
X011781Y005868D01*
X011781Y005829D02*
X011860Y005829D01*
X011860Y005791D02*
X011781Y005791D01*
X011663Y005791D02*
X011584Y005791D01*
X011584Y005779D02*
X011663Y005779D01*
X011663Y005976D01*
X011584Y005976D01*
X011584Y005779D01*
X011584Y005829D02*
X011663Y005829D01*
X011663Y005868D02*
X011584Y005868D01*
X011584Y005907D02*
X011663Y005907D01*
X011663Y005945D02*
X011584Y005945D01*
X011466Y005945D02*
X011387Y005945D01*
X011387Y005976D02*
X011466Y005976D01*
X011466Y005779D01*
X011387Y005779D01*
X011387Y005976D01*
X011387Y005907D02*
X011466Y005907D01*
X011466Y005868D02*
X011387Y005868D01*
X011387Y005829D02*
X011466Y005829D01*
X011466Y005791D02*
X011387Y005791D01*
X011269Y005791D02*
X011190Y005791D01*
X011190Y005779D02*
X011269Y005779D01*
X011269Y005976D01*
X011190Y005976D01*
X011190Y005779D01*
X011190Y005829D02*
X011269Y005829D01*
X011269Y005868D02*
X011190Y005868D01*
X011190Y005907D02*
X011269Y005907D01*
X011269Y005945D02*
X011190Y005945D01*
X011072Y005945D02*
X010994Y005945D01*
X010994Y005976D02*
X011072Y005976D01*
X011072Y005779D01*
X010994Y005779D01*
X010994Y005976D01*
X010994Y005907D02*
X011072Y005907D01*
X011072Y005868D02*
X010994Y005868D01*
X010994Y005829D02*
X011072Y005829D01*
X011072Y005791D02*
X010994Y005791D01*
X010876Y005791D02*
X010797Y005791D01*
X010797Y005779D02*
X010876Y005779D01*
X010876Y005976D01*
X010797Y005976D01*
X010797Y005779D01*
X010797Y005829D02*
X010876Y005829D01*
X010876Y005868D02*
X010797Y005868D01*
X010797Y005907D02*
X010876Y005907D01*
X010876Y005945D02*
X010797Y005945D01*
X010679Y005945D02*
X010600Y005945D01*
X010600Y005976D02*
X010679Y005976D01*
X010679Y005779D01*
X010600Y005779D01*
X010600Y005976D01*
X010600Y005907D02*
X010679Y005907D01*
X010679Y005868D02*
X010600Y005868D01*
X010600Y005829D02*
X010679Y005829D01*
X010679Y005791D02*
X010600Y005791D01*
X010482Y005791D02*
X010403Y005791D01*
X010403Y005779D02*
X010482Y005779D01*
X010482Y005976D01*
X010423Y005976D01*
X010403Y005957D01*
X010403Y005779D01*
X010403Y005829D02*
X010482Y005829D01*
X010482Y005868D02*
X010403Y005868D01*
X010403Y005907D02*
X010482Y005907D01*
X010482Y005945D02*
X010403Y005945D01*
X010305Y006055D02*
X010324Y006075D01*
X010324Y006134D01*
X010127Y006134D01*
X010127Y006055D01*
X010305Y006055D01*
X010310Y006061D02*
X010127Y006061D01*
X010127Y006099D02*
X010324Y006099D01*
X010324Y006252D02*
X010127Y006252D01*
X010127Y006331D01*
X010324Y006331D01*
X010324Y006252D01*
X010324Y006253D02*
X010127Y006253D01*
X010127Y006292D02*
X010324Y006292D01*
X010324Y006331D02*
X010127Y006331D01*
X010127Y006449D02*
X010127Y006527D01*
X010324Y006527D01*
X010324Y006449D01*
X010127Y006449D01*
X010127Y006485D02*
X010324Y006485D01*
X010324Y006523D02*
X010127Y006523D01*
X010127Y006646D02*
X010127Y006724D01*
X010324Y006724D01*
X010324Y006646D01*
X010127Y006646D01*
X010127Y006677D02*
X010324Y006677D01*
X010324Y006716D02*
X010127Y006716D01*
X010127Y006842D02*
X010127Y006921D01*
X010324Y006921D01*
X010324Y006842D01*
X010127Y006842D01*
X010127Y006870D02*
X010324Y006870D01*
X010324Y006909D02*
X010127Y006909D01*
X010127Y007039D02*
X010127Y007118D01*
X010324Y007118D01*
X010324Y007039D01*
X010127Y007039D01*
X010127Y007063D02*
X010324Y007063D01*
X010324Y007101D02*
X010127Y007101D01*
X010127Y007236D02*
X010127Y007315D01*
X010324Y007315D01*
X010324Y007236D01*
X010127Y007236D01*
X010127Y007256D02*
X010324Y007256D01*
X010324Y007294D02*
X010127Y007294D01*
X010127Y007433D02*
X010127Y007512D01*
X010305Y007512D01*
X010324Y007492D01*
X010324Y007433D01*
X010127Y007433D01*
X010127Y007448D02*
X010324Y007448D01*
X010324Y007487D02*
X010127Y007487D01*
X010403Y007610D02*
X010423Y007590D01*
X010482Y007590D01*
X010482Y007787D01*
X010403Y007787D01*
X010403Y007610D01*
X010411Y007602D02*
X010482Y007602D01*
X010482Y007641D02*
X010403Y007641D01*
X010403Y007680D02*
X010482Y007680D01*
X010482Y007718D02*
X010403Y007718D01*
X010403Y007757D02*
X010482Y007757D01*
X010600Y007757D02*
X010679Y007757D01*
X010679Y007787D02*
X010679Y007590D01*
X010600Y007590D01*
X010600Y007787D01*
X010679Y007787D01*
X010679Y007718D02*
X010600Y007718D01*
X010600Y007680D02*
X010679Y007680D01*
X010679Y007641D02*
X010600Y007641D01*
X010600Y007602D02*
X010679Y007602D01*
X010797Y007602D02*
X010876Y007602D01*
X010876Y007590D02*
X010797Y007590D01*
X010797Y007787D01*
X010876Y007787D01*
X010876Y007590D01*
X010876Y007641D02*
X010797Y007641D01*
X010797Y007680D02*
X010876Y007680D01*
X010876Y007718D02*
X010797Y007718D01*
X010797Y007757D02*
X010876Y007757D01*
X010994Y007757D02*
X011072Y007757D01*
X011072Y007787D02*
X011072Y007590D01*
X010994Y007590D01*
X010994Y007787D01*
X011072Y007787D01*
X011072Y007718D02*
X010994Y007718D01*
X010994Y007680D02*
X011072Y007680D01*
X011072Y007641D02*
X010994Y007641D01*
X010994Y007602D02*
X011072Y007602D01*
X011190Y007602D02*
X011269Y007602D01*
X011269Y007590D02*
X011190Y007590D01*
X011190Y007787D01*
X011269Y007787D01*
X011269Y007590D01*
X011269Y007641D02*
X011190Y007641D01*
X011190Y007680D02*
X011269Y007680D01*
X011269Y007718D02*
X011190Y007718D01*
X011190Y007757D02*
X011269Y007757D01*
X011387Y007757D02*
X011466Y007757D01*
X011466Y007787D02*
X011466Y007590D01*
X011387Y007590D01*
X011387Y007787D01*
X011466Y007787D01*
X011466Y007718D02*
X011387Y007718D01*
X011387Y007680D02*
X011466Y007680D01*
X011466Y007641D02*
X011387Y007641D01*
X011387Y007602D02*
X011466Y007602D01*
X011584Y007602D02*
X011663Y007602D01*
X011663Y007590D02*
X011584Y007590D01*
X011584Y007787D01*
X011663Y007787D01*
X011663Y007590D01*
X011663Y007641D02*
X011584Y007641D01*
X011584Y007680D02*
X011663Y007680D01*
X011663Y007718D02*
X011584Y007718D01*
X011584Y007757D02*
X011663Y007757D01*
X011781Y007757D02*
X011860Y007757D01*
X011860Y007787D02*
X011860Y007610D01*
X011840Y007590D01*
X011781Y007590D01*
X011781Y007787D01*
X011860Y007787D01*
X011860Y007718D02*
X011781Y007718D01*
X011781Y007680D02*
X011860Y007680D01*
X011860Y007641D02*
X011781Y007641D01*
X011781Y007602D02*
X011852Y007602D01*
X011958Y007512D02*
X011939Y007492D01*
X011939Y007433D01*
X012135Y007433D01*
X012135Y007512D01*
X011958Y007512D01*
X011939Y007487D02*
X012135Y007487D01*
X012135Y007448D02*
X011939Y007448D01*
X011939Y007315D02*
X012135Y007315D01*
X012135Y007236D01*
X011939Y007236D01*
X011939Y007315D01*
X011939Y007294D02*
X012135Y007294D01*
X012135Y007256D02*
X011939Y007256D01*
X011939Y007118D02*
X012135Y007118D01*
X012135Y007039D01*
X011939Y007039D01*
X011939Y007118D01*
X011939Y007101D02*
X012135Y007101D01*
X012135Y007063D02*
X011939Y007063D01*
X011939Y006921D02*
X012135Y006921D01*
X012135Y006842D01*
X011939Y006842D01*
X011939Y006921D01*
X011939Y006909D02*
X012135Y006909D01*
X012135Y006870D02*
X011939Y006870D01*
X011939Y006724D02*
X012135Y006724D01*
X012135Y006646D01*
X011939Y006646D01*
X011939Y006724D01*
X011939Y006716D02*
X012135Y006716D01*
X012135Y006677D02*
X011939Y006677D01*
X011939Y006527D02*
X012135Y006527D01*
X012135Y006449D01*
X011939Y006449D01*
X011939Y006527D01*
X011939Y006523D02*
X012135Y006523D01*
X012135Y006485D02*
X011939Y006485D01*
D13*
X005931Y002933D03*
X005131Y002933D03*
D14*
X004913Y005559D03*
X005739Y005933D03*
X004913Y006307D03*
D15*
X003699Y009371D03*
X002164Y009371D03*
D16*
X003916Y006188D03*
X003916Y005873D03*
X003916Y005558D03*
X003916Y005243D03*
X003916Y004928D03*
D17*
X003916Y003787D03*
X001750Y003787D03*
X001750Y007330D03*
X003916Y007330D03*
D18*
X002931Y006425D03*
X002931Y004692D03*
D19*
X006431Y004433D03*
X008431Y004433D03*
D20*
X006106Y008183D03*
X005506Y008183D03*
X014756Y004308D03*
X015356Y004308D03*
D21*
X015056Y004308D03*
X005806Y008183D03*
D22*
X005431Y009683D03*
D23*
X006431Y009683D03*
X007431Y009683D03*
X008431Y009683D03*
X009431Y009683D03*
X010431Y009683D03*
X011431Y009683D03*
X012431Y009683D03*
X013431Y009683D03*
X014431Y009683D03*
X015431Y009683D03*
X016431Y009683D03*
X017431Y009683D03*
X017431Y008058D03*
X017431Y007058D03*
X017431Y006058D03*
X017431Y005058D03*
X017431Y004058D03*
X017431Y003058D03*
D24*
X011070Y001834D03*
X010479Y001834D03*
X010479Y001283D03*
X011070Y001283D03*
D25*
X010774Y001283D03*
X010774Y001834D03*
D26*
X010774Y002418D03*
X011089Y002418D03*
X011404Y002418D03*
X011404Y002949D03*
X011089Y002949D03*
X010774Y002949D03*
X010459Y002949D03*
X010459Y002418D03*
D27*
X004151Y002718D03*
X004151Y001808D03*
X004151Y000898D03*
D28*
X001711Y001808D03*
D29*
X007681Y001683D03*
X008681Y001683D03*
X009681Y001683D03*
D30*
X005905Y001808D03*
X005157Y001808D03*
D31*
X013431Y005433D03*
X014431Y005433D03*
X014431Y006433D03*
X013431Y006433D03*
X013431Y007433D03*
X014431Y007433D03*
M02*
